<svg xmlns="http://www.w3.org/2000/svg" xmlns:xlink="http://www.w3.org/1999/xlink" width="2000" zoomAndPan="magnify" viewBox="0 0 1500 1499.999933" height="2000" preserveAspectRatio="xMidYMid meet" version="1.0"><defs><g/><clipPath id="73b864faee"><path d="M 93 17 L 273 17 L 273 260 L 93 260 Z M 93 17 " clip-rule="nonzero"/></clipPath><clipPath id="e98deef0ca"><path d="M 211.140625 0.832031 L 289.558594 46.992188 L 154.6875 276.125 L 76.265625 229.964844 Z M 211.140625 0.832031 " clip-rule="nonzero"/></clipPath><clipPath id="7958b78a1d"><path d="M 250.351562 23.914062 C 260.75 30.035156 268.292969 40.035156 271.316406 51.71875 C 274.339844 63.398438 272.601562 75.804688 266.480469 86.203125 L 177.824219 236.816406 C 171.703125 247.214844 161.703125 254.753906 150.019531 257.78125 C 138.339844 260.804688 125.933594 259.066406 115.535156 252.945312 C 105.136719 246.824219 97.59375 236.820312 94.570312 225.140625 C 91.542969 213.457031 93.285156 201.054688 99.40625 190.65625 L 188.0625 40.042969 C 194.183594 29.644531 204.183594 22.101562 215.867188 19.078125 C 227.546875 16.050781 239.953125 17.792969 250.351562 23.914062 Z M 250.351562 23.914062 " clip-rule="nonzero"/></clipPath><clipPath id="4d64575377"><path d="M 0 0 L 180 0 L 180 243 L 0 243 Z M 0 0 " clip-rule="nonzero"/></clipPath><clipPath id="ed69100d18"><path d="M 118.140625 -16.167969 L 196.558594 29.992188 L 61.6875 259.125 L -16.734375 212.964844 Z M 118.140625 -16.167969 " clip-rule="nonzero"/></clipPath><clipPath id="d57b6f7414"><path d="M 157.351562 6.914062 C 167.75 13.035156 175.292969 23.035156 178.316406 34.71875 C 181.339844 46.398438 179.601562 58.804688 173.480469 69.203125 L 84.824219 219.816406 C 78.703125 230.214844 68.703125 237.753906 57.019531 240.78125 C 45.339844 243.804688 32.933594 242.066406 22.535156 235.945312 C 12.136719 229.824219 4.59375 219.820312 1.570312 208.140625 C -1.457031 196.457031 0.285156 184.054688 6.40625 173.65625 L 95.0625 23.042969 C 101.183594 12.644531 111.183594 5.101562 122.867188 2.078125 C 134.546875 -0.949219 146.953125 0.792969 157.351562 6.914062 Z M 157.351562 6.914062 " clip-rule="nonzero"/></clipPath><clipPath id="72dc65ba68"><rect x="0" width="180" y="0" height="243"/></clipPath><clipPath id="e4d180b3a0"><path d="M 1 17.402344 L 94.75 17.402344 L 94.75 111.148438 L 1 111.148438 Z M 1 17.402344 " clip-rule="nonzero"/></clipPath><clipPath id="be93fe6918"><path d="M 47.875 17.402344 C 21.988281 17.402344 1 38.386719 1 64.273438 C 1 90.164062 21.988281 111.148438 47.875 111.148438 C 73.761719 111.148438 94.75 90.164062 94.75 64.273438 C 94.75 38.386719 73.761719 17.402344 47.875 17.402344 Z M 47.875 17.402344 " clip-rule="nonzero"/></clipPath><clipPath id="71d6e10049"><path d="M 0 0.402344 L 93.75 0.402344 L 93.75 94.148438 L 0 94.148438 Z M 0 0.402344 " clip-rule="nonzero"/></clipPath><clipPath id="cf4869fc52"><path d="M 46.875 0.402344 C 20.988281 0.402344 0 21.386719 0 47.273438 C 0 73.164062 20.988281 94.148438 46.875 94.148438 C 72.761719 94.148438 93.75 73.164062 93.75 47.273438 C 93.75 21.386719 72.761719 0.402344 46.875 0.402344 Z M 46.875 0.402344 " clip-rule="nonzero"/></clipPath><clipPath id="7f10335f73"><rect x="0" width="94" y="0" height="95"/></clipPath><clipPath id="a444857fdb"><rect x="0" width="1360" y="0" height="277"/></clipPath></defs><g transform="matrix(1, 0, 0, 1, 70, 595)"><g clip-path="url(#a444857fdb)"><g clip-path="url(#73b864faee)"><g clip-path="url(#e98deef0ca)"><g clip-path="url(#7958b78a1d)"><g transform="matrix(1, 0, 0, 1, 93, 17)"><g clip-path="url(#72dc65ba68)"><g clip-path="url(#4d64575377)"><g clip-path="url(#ed69100d18)"><g clip-path="url(#d57b6f7414)"><path fill="#3a835c" d="M 118.140625 -16.167969 L 196.558594 29.992188 L 61.6875 259.125 L -16.734375 212.964844 Z M 118.140625 -16.167969 " fill-opacity="1" fill-rule="nonzero"/></g></g></g></g></g></g></g></g><g clip-path="url(#e4d180b3a0)"><g clip-path="url(#be93fe6918)"><g transform="matrix(1, 0, 0, 1, 1, 17)"><g clip-path="url(#7f10335f73)"><g clip-path="url(#71d6e10049)"><g clip-path="url(#cf4869fc52)"><path fill="#3a835c" d="M 0 0.402344 L 93.75 0.402344 L 93.75 94.148438 L 0 94.148438 Z M 0 0.402344 " fill-opacity="1" fill-rule="nonzero"/></g></g></g></g></g></g><g fill="#000000" fill-opacity="1"><g transform="translate(302.860041, 222.079291)"><g><path d="M 172.96875 0 L 148.59375 0 L 131.859375 -39.9375 L 42.78125 -39.9375 L 26.0625 0 L 1.6875 0 L 76.375 -176.34375 L 98.40625 -176.34375 Z M 86.484375 -144.046875 L 50.953125 -59.390625 L 123.703125 -59.390625 L 88.171875 -144.046875 L 87.515625 -147.03125 L 87.265625 -147.03125 Z M 86.484375 -144.046875 "/></g></g></g><g fill="#000000" fill-opacity="1"><g transform="translate(462.108379, 222.079291)"><g><path d="M 75.328125 3.765625 C 65.992188 3.765625 57.375 1.972656 49.46875 -1.609375 C 41.5625 -5.203125 34.664062 -10.195312 28.78125 -16.59375 C 22.90625 -22.988281 18.347656 -30.421875 15.109375 -38.890625 C 11.867188 -47.367188 10.25 -56.445312 10.25 -66.125 C 10.25 -75.8125 11.847656 -84.867188 15.046875 -93.296875 C 18.242188 -101.722656 22.757812 -109.132812 28.59375 -115.53125 C 34.425781 -121.925781 41.316406 -126.9375 49.265625 -130.5625 C 57.222656 -134.195312 65.957031 -136.015625 75.46875 -136.015625 C 83.757812 -136.015625 91.234375 -134.476562 97.890625 -131.40625 C 104.546875 -128.34375 110.269531 -124.410156 115.0625 -119.609375 C 119.863281 -114.816406 123.519531 -109.738281 126.03125 -104.375 L 125.515625 -117.21875 L 125.515625 -182.5625 L 147.8125 -182.5625 L 147.8125 0 L 126.421875 0 L 126.421875 -28.140625 C 123.648438 -22.171875 119.78125 -16.785156 114.8125 -11.984375 C 109.84375 -7.191406 104.03125 -3.367188 97.375 -0.515625 C 90.71875 2.335938 83.367188 3.765625 75.328125 3.765625 Z M 78.96875 -16.984375 C 85.445312 -16.984375 91.515625 -18.234375 97.171875 -20.734375 C 102.835938 -23.242188 107.8125 -26.722656 112.09375 -31.171875 C 116.375 -35.628906 119.722656 -40.835938 122.140625 -46.796875 C 124.554688 -52.765625 125.765625 -59.207031 125.765625 -66.125 C 125.765625 -73.039062 124.554688 -79.457031 122.140625 -85.375 C 119.722656 -91.300781 116.375 -96.488281 112.09375 -100.9375 C 107.8125 -105.394531 102.835938 -108.875 97.171875 -111.375 C 91.515625 -113.882812 85.445312 -115.140625 78.96875 -115.140625 C 72.476562 -115.140625 66.398438 -113.90625 60.734375 -111.4375 C 55.078125 -108.976562 50.128906 -105.539062 45.890625 -101.125 C 41.660156 -96.71875 38.359375 -91.53125 35.984375 -85.5625 C 33.609375 -79.601562 32.421875 -73.125 32.421875 -66.125 C 32.421875 -59.207031 33.585938 -52.765625 35.921875 -46.796875 C 38.253906 -40.835938 41.515625 -35.628906 45.703125 -31.171875 C 49.898438 -26.722656 54.828125 -23.242188 60.484375 -20.734375 C 66.148438 -18.234375 72.3125 -16.984375 78.96875 -16.984375 Z M 78.96875 -16.984375 "/></g></g></g><g fill="#000000" fill-opacity="1"><g transform="translate(615.911064, 222.079291)"><g><path d="M 78.96875 3.765625 C 69.195312 3.765625 60.140625 1.972656 51.796875 -1.609375 C 43.453125 -5.203125 36.164062 -10.195312 29.9375 -16.59375 C 23.71875 -22.988281 18.878906 -30.421875 15.421875 -38.890625 C 11.972656 -47.367188 10.25 -56.445312 10.25 -66.125 C 10.25 -75.8125 11.972656 -84.867188 15.421875 -93.296875 C 18.878906 -101.722656 23.695312 -109.132812 29.875 -115.53125 C 36.0625 -121.925781 43.328125 -126.9375 51.671875 -130.5625 C 60.015625 -134.195312 69.113281 -136.015625 78.96875 -136.015625 C 88.820312 -136.015625 97.941406 -134.21875 106.328125 -130.625 C 114.710938 -127.039062 122.015625 -122.050781 128.234375 -115.65625 C 134.460938 -109.257812 139.300781 -101.828125 142.75 -93.359375 C 146.207031 -84.890625 147.9375 -75.8125 147.9375 -66.125 C 147.9375 -56.445312 146.207031 -47.367188 142.75 -38.890625 C 139.300781 -30.421875 134.460938 -22.988281 128.234375 -16.59375 C 122.015625 -10.195312 114.710938 -5.203125 106.328125 -1.609375 C 97.941406 1.972656 88.820312 3.765625 78.96875 3.765625 Z M 79.21875 -17.25 C 85.789062 -17.25 91.882812 -18.457031 97.5 -20.875 C 103.125 -23.289062 108.050781 -26.703125 112.28125 -31.109375 C 116.519531 -35.523438 119.804688 -40.710938 122.140625 -46.671875 C 124.472656 -52.640625 125.640625 -59.125 125.640625 -66.125 C 125.640625 -73.125 124.472656 -79.582031 122.140625 -85.5 C 119.804688 -91.425781 116.519531 -96.59375 112.28125 -101 C 108.050781 -105.414062 103.125 -108.851562 97.5 -111.3125 C 91.882812 -113.78125 85.789062 -115.015625 79.21875 -115.015625 C 72.65625 -115.015625 66.539062 -113.78125 60.875 -111.3125 C 55.21875 -108.851562 50.269531 -105.414062 46.03125 -101 C 41.789062 -96.59375 38.484375 -91.425781 36.109375 -85.5 C 33.734375 -79.582031 32.546875 -73.125 32.546875 -66.125 C 32.546875 -59.125 33.734375 -52.640625 36.109375 -46.671875 C 38.484375 -40.710938 41.789062 -35.523438 46.03125 -31.109375 C 50.269531 -26.703125 55.21875 -23.289062 60.875 -20.875 C 66.539062 -18.457031 72.65625 -17.25 79.21875 -17.25 Z M 79.21875 -17.25 "/></g></g></g><g fill="#000000" fill-opacity="1"><g transform="translate(758.69268, 222.079291)"><g><path d="M 46.9375 0 L 23.984375 0 L 23.984375 -176.34375 L 141.203125 -176.34375 L 141.203125 -155.46875 L 46.9375 -155.46875 L 46.9375 -93.484375 L 128.890625 -93.484375 L 128.890625 -73.90625 L 46.9375 -73.90625 Z M 46.9375 0 "/></g></g></g><g fill="#000000" fill-opacity="1"><g transform="translate(892.398231, 222.079291)"><g><path d="M 78.1875 3.765625 C 69.363281 3.765625 61.28125 2.507812 53.9375 0 C 46.59375 -2.507812 40.21875 -6.398438 34.8125 -11.671875 C 29.40625 -16.941406 25.210938 -23.703125 22.234375 -31.953125 C 19.253906 -40.210938 17.765625 -50.09375 17.765625 -61.59375 L 17.765625 -132.25 L 39.9375 -132.25 L 39.9375 -62.234375 C 39.9375 -47.367188 43.242188 -36.15625 49.859375 -28.59375 C 56.472656 -21.03125 65.828125 -17.25 77.921875 -17.25 C 90.109375 -17.25 99.488281 -21.03125 106.0625 -28.59375 C 112.632812 -36.15625 115.921875 -47.367188 115.921875 -62.234375 L 115.921875 -132.25 L 138.21875 -132.25 L 138.21875 -61.59375 C 138.21875 -50.09375 136.722656 -40.210938 133.734375 -31.953125 C 130.753906 -23.703125 126.5625 -16.941406 121.15625 -11.671875 C 115.757812 -6.398438 109.410156 -2.507812 102.109375 0 C 94.804688 2.507812 86.832031 3.765625 78.1875 3.765625 Z M 78.1875 3.765625 "/></g></g></g><g fill="#000000" fill-opacity="1"><g transform="translate(1032.975693, 222.079291)"><g><path d="M 96.859375 0 L 72.484375 0 C 67.460938 0 62.488281 -0.644531 57.5625 -1.9375 C 52.632812 -3.238281 48.160156 -5.617188 44.140625 -9.078125 C 40.128906 -12.535156 36.910156 -17.484375 34.484375 -23.921875 C 32.066406 -30.359375 30.859375 -38.722656 30.859375 -49.015625 L 30.859375 -112.671875 L 1.421875 -112.671875 L 1.421875 -132.25 L 30.859375 -132.25 L 30.859375 -171.546875 L 53.15625 -171.671875 L 53.15625 -132.25 L 96.859375 -132.25 L 96.859375 -112.671875 L 53.15625 -112.671875 L 53.15625 -47.96875 C 53.15625 -41.832031 53.828125 -36.84375 55.171875 -33 C 56.515625 -29.15625 58.328125 -26.21875 60.609375 -24.1875 C 62.898438 -22.15625 65.453125 -20.769531 68.265625 -20.03125 C 71.078125 -19.300781 73.953125 -18.9375 76.890625 -18.9375 L 96.859375 -18.9375 Z M 96.859375 0 "/></g></g></g><g fill="#000000" fill-opacity="1"><g transform="translate(1121.819224, 222.079291)"><g><path d="M 78.1875 3.765625 C 69.363281 3.765625 61.28125 2.507812 53.9375 0 C 46.59375 -2.507812 40.21875 -6.398438 34.8125 -11.671875 C 29.40625 -16.941406 25.210938 -23.703125 22.234375 -31.953125 C 19.253906 -40.210938 17.765625 -50.09375 17.765625 -61.59375 L 17.765625 -132.25 L 39.9375 -132.25 L 39.9375 -62.234375 C 39.9375 -47.367188 43.242188 -36.15625 49.859375 -28.59375 C 56.472656 -21.03125 65.828125 -17.25 77.921875 -17.25 C 90.109375 -17.25 99.488281 -21.03125 106.0625 -28.59375 C 112.632812 -36.15625 115.921875 -47.367188 115.921875 -62.234375 L 115.921875 -132.25 L 138.21875 -132.25 L 138.21875 -61.59375 C 138.21875 -50.09375 136.722656 -40.210938 133.734375 -31.953125 C 130.753906 -23.703125 126.5625 -16.941406 121.15625 -11.671875 C 115.757812 -6.398438 109.410156 -2.507812 102.109375 0 C 94.804688 2.507812 86.832031 3.765625 78.1875 3.765625 Z M 78.1875 3.765625 "/></g></g></g><g fill="#000000" fill-opacity="1"><g transform="translate(1262.396759, 222.079291)"><g><path d="M 43.828125 0 L 21.390625 0 L 21.390625 -132.25 L 42.921875 -132.25 L 42.921875 -102.6875 C 46.203125 -111.851562 51.320312 -119.070312 58.28125 -124.34375 C 65.238281 -129.613281 73.515625 -132.25 83.109375 -132.25 L 95.953125 -132.25 L 95.953125 -112.671875 L 84.28125 -112.671875 C 76.582031 -112.671875 69.664062 -110.679688 63.53125 -106.703125 C 57.394531 -102.734375 52.578125 -96.988281 49.078125 -89.46875 C 45.578125 -81.945312 43.828125 -72.867188 43.828125 -62.234375 Z M 43.828125 0 "/></g></g></g></g></g></svg>