<svg xmlns="http://www.w3.org/2000/svg" width="160" height="160" fill="none"><style>.B{fill:#1d2331}.C{fill:#a9695c}.D{fill:#fdb824}.E{fill:#61b274}</style><g clip-path="url(#B)"><g clip-path="url(#C)"><path d="M25.152 41.979c1.121-9.737 20.834-43.181 35.618-28.161S21.842 70.69 25.152 41.979m71.009 106.027c-38.633 5.547-60.782-7.466-76.239-28.95-29.895-41.557 14.944-53.04 37.185-78.421 22.668-25.868 59.828-49.541 84.886 4.928 17.033 37.022 9.354 94.521-45.832 102.443" fill="#c3e6e0"/><mask id="A" maskUnits="userSpaceOnUse" x="9" y="12" width="142" height="138"><path d="M96.161 148.005c-38.633 5.546-60.782-7.466-76.239-28.95-29.895-41.557 14.944-53.04 37.185-78.422 22.668-25.868 59.828-49.541 84.886 4.928 17.033 37.022 9.353 94.522-45.832 102.444" fill="#fff"/></mask><g mask="url(#A)"><use href="#D" class="E"/><path d="M30.849 79.987h-5.126v69.301h5.126zm11.012 0h-5.126v69.301h5.126zm11.983 0h-5.126v69.301h5.126zm11.015 0h-5.126v69.301h5.126zm11.982 0h-5.126v69.301h5.126zm11.013 0h-5.126v69.301h5.126zm11.982 0H94.71v69.301h5.126zm11.015 0h-5.126v69.301h5.126zm11.982 0h-5.126v69.301h5.126zm11.012 0h-5.126v69.301h5.126zm11.983 0h-5.126v69.301h5.126z" class="E"/><path d="M160 78.743H0v1.602h160z" class="B"/></g><path d="M139.283 59.445h-.211l-.609-3.361c2.553-7.614 2.494-15.83-2.092-13.927a3 3 0 0 0-.402.207L133.956 31.3l-.465-.798 2.198 12.064c-2.374 1.831-3.357 7.472-3.549 12.369-1.551-3.512-3.96-6.979-6.596-8.703l3.232-21.437-.242-.333-3.297 21.581-.315-.188v-.019h-.04c-1.948-1.037-3.98-1.065-5.855.572h-.019l-.1.123c-2.497 2.287-1.043 5.519 1.598 8.521l-.094.261a8 8 0 0 0 .465.148 32 32 0 0 0 2.572 2.472l-.232 1.533h-.079a1.4 1.4 0 0 0-.532.105 1.39 1.39 0 0 0-.859 1.284v1.768a1.39 1.39 0 0 0 1.391 1.391h.066l2.617 4.498h10.792l2.613-4.498h.069a1.39 1.39 0 0 0 1.392-1.391v-1.768a1.4 1.4 0 0 0-.406-.999 1.4 1.4 0 0 0-.998-.408zm-.537 0h-1.609c.406-.889.779-1.809 1.112-2.742zm-15.023-1.285a69 69 0 0 0 1.57 1.285h-1.778z" class="B"/><path d="m126.514 22.445-5.343 35.119.317.048 5.343-35.119z" fill="#312113"/><path d="M116.879 44.495c6.815-6.247 15.82 9.928 14.957 16.333h-3.402c-3.307-1.611-17.074-11.279-11.555-16.333" class="E"/><g class="B"><path d="M130.058 60.881c-5.051-9.237-13.192-16.188-13.283-16.257l.207-.245c.082.069 8.28 7.061 13.355 16.348z"/><path d="M126.059 54.549c-.241-.025-5.942-.628-7.679-1.275l.113-.298c1.696.628 7.538 1.256 7.598 1.256zm-4.139-5.443-.295-.119c.791-1.976.942-5.151.942-5.186h.314c.009.148-.157 3.279-.961 5.305"/></g><path d="M128.823 50.368c2.089 3.659 3.364 7.852 3.012 10.444-4.755-4.149-3.772-9.762-3.012-10.443z" fill="#000"/><path d="M134.345 40.151c6.049-2.513 4.227 12.579-1.084 20.67h-2.478c-1.228-2.029-1.329-18.644 3.562-20.67" class="E"/><g class="B"><path d="m131.992 60.846-.314-.066c.942-4.479 3.531-18.93 3.556-19.075l.314.057c-.022.144-2.604 14.599-3.556 19.084"/><path d="m135.491 53.037-2.646 2.653.227.226 2.645-2.653zm-4.559-5.41-.184.262 3.01 2.113.184-.262z"/></g><g fill="#fff"><path d="M137.263 57.426h-16.157a1.39 1.39 0 0 0-1.391 1.392v1.768a1.39 1.39 0 0 0 1.391 1.391h16.157a1.39 1.39 0 0 0 1.391-1.391v-1.768a1.39 1.39 0 0 0-1.391-1.392"/><path d="M123.788 66.475h10.793l2.644-4.551h-16.081z"/></g><path d="M131.942 61.692h-9.919v.32h9.919zm-.619-33.499-.314.058 5.441 29.623.314-.058zm11.641 121.02H10.126v.32h132.838z" fill="#312113"/><path d="M85.124 24.167a6.2 6.2 0 0 0-2.535 1.256c-.704.644-1.134 1.674-.81 2.572 1.511.656 2.145.682 3.791.628 6.712-.204 8.251 20.416 9.423 25.755a22.15 22.15 0 0 0 9.978-2.802c-1.856-7.029-7.459-30.975-19.847-27.41z" class="B"/><path d="M83.544 26.514c-.587-.057-1.844.122-2.064.814s.813.983 1.256 1.197a15 15 0 0 1 2.07 1.181c.21.141 1.743 1.533 1.856 1.495.697-.239.98-1.14.763-1.844s-.788-1.231-1.376-1.677c-.735-.569-1.577-1.071-2.506-1.165z" class="D"/><g class="B"><path d="M90.024 142.054c-.201-1.046.157-3.288-.942-3.656-.691-.232-.597.314-.663.87a5.1 5.1 0 0 0 .101 1.665 14 14 0 0 0 .861 2.45c.314.706.861 2.403 1.159 3.106.126-.075.223-.138.258-.276.05-.204-.267-1.495-.314-1.709l-.459-2.45z"/><path d="M88.903 139.736a1.7 1.7 0 0 0-.367-.879 1.4 1.4 0 0 0-.577-.289 1.4 1.4 0 0 0-.645.006 3.05 3.05 0 0 0-1.244.528c-.37.266-.676.611-.895 1.011-.377.741.041 1.533.151 2.299a8.1 8.1 0 0 1-1.256 5.613 4 4 0 0 0-.54.942 1.02 1.02 0 0 0 .157 1.015c.408.424 1.112.21 1.649-.029l2.177-.973a3.9 3.9 0 0 0 1.492-.968c.54-.662.581-1.589.562-2.443a32 32 0 0 0-.663-5.833z"/></g><path d="m88.692 137.739-.741-6.238a10.86 10.86 0 0 0-6.778.578l3.596 8.392.368 1.103c.283.798.556 1.131 1.665.719a2.8 2.8 0 0 0 1.007-.595 2.85 2.85 0 0 0 .683-.95q.072-.153.126-.314c.107-.354.169-.721.185-1.09a8 8 0 0 0-.028-.986l-.082-.619z" class="C"/><g class="B"><path d="M85.47 93.597c-.795-5.575-1.077-14.8-7.309-17.253-2.764-1.087-5.968.242-7.645 2.685 3.072 20.84 4.711 39.531 12.108 59.256a17.7 17.7 0 0 0 6.649-2.337c0-6.96-.113-13.961-.814-20.893-.726-7.189-1.976-14.31-2.99-21.458zm-21.267 47.939a5 5 0 0 0-.757 1.482 13.5 13.5 0 0 0-.502 2.547l-.584 3.267a.5.5 0 0 0 .194-.015.5.5 0 0 0 .17-.095c.148-.151.531-1.423.603-1.627l.839-2.349c.358-1.005 1.803-2.752 1.049-3.625-.474-.553-.675-.025-1.011.415z"/><path d="M63.6 140.371a3.1 3.1 0 0 0-1.34-.178 3.1 3.1 0 0 0-1.286.416c-.7.446-.744 1.341-1.04 2.058a8.1 8.1 0 0 1-3.932 4.196 4 4 0 0 0-.942.528 1 1 0 0 0-.316.42 1 1 0 0 0-.064.522c.138.575.854.747 1.439.813l2.365.267a3.86 3.86 0 0 0 1.778-.075c.801-.295 1.307-1.074 1.727-1.819a32.4 32.4 0 0 0 2.387-5.339 1.73 1.73 0 0 0 .129-.942 1.4 1.4 0 0 0-.349-.542 1.4 1.4 0 0 0-.556-.325"/></g><path d="m60.443 140.713-.242 1.137c-.163.829-.097 1.256 1.068 1.464a2.9 2.9 0 0 0 1.169-.002c.385-.081.75-.241 1.071-.469a3 3 0 0 0 .273-.22 4.3 4.3 0 0 0 .713-.845q.27-.413.477-.861l.239-.565 2.529-5.751a10.87 10.87 0 0 0-6.128-2.946z" class="C"/><path d="M80.981 75.52c-7.94 19.511-17.843 42.258-21.496 63.007a17.7 17.7 0 0 0 6.91 1.363c3.549-5.99 8.816-17.903 11.737-24.223 3.025-6.561 5.566-13.327 8.327-20.001 2.148-5.208 6.596-13.295 2.469-18.572-1.825-2.343-5.252-2.82-7.946-1.574z" class="B"/><path d="m66.835 19.497-4.73.961s-8.364 15.88-6.093 21.232c1.756 4.14 16.113 10.434 16.113 10.434 2.905-2.064 7.934-4.234 8.895-7.494l-17.774-7.12z" class="C"/><g class="D"><path d="M91.833 51.323c.016-1.79-2.513-5.025-5.34-6.42l-1.087-.521-3.493-1.454-3.521 1.366-1.643.779c-3.106 1.605-5.729 7.262-6.37 8.882-1.175 2.974 1.794 5.186 2.111 8.012 0 0-2.513 12.124-2.032 17.306.704.908 2.676.364 4.592.201 3.053-.261 12.9-.817 14.841-.804.581 0-4.62-5.025-3.615-11.028 1.36-8.05 5.556-16.32 5.556-16.32z"/><path d="M80.369 43.719c-.719-.182-1.351-.204-2.029-.575-.81-.44-1.498-1.074-2.274-1.57-1.715-1.087-7.623-3.647-8.848-3.141-.98.396-2.626 2.78-3.32 3.578-1.636 1.884-2.827 4.083-3.848 6.367-.474 1.065-.88 2.403-.151 3.314.59.732 1.649.829 2.588.867l6.565.264c1.784.072 3.621.138 5.305-.462 2.475-.88 4.243-3.047 5.694-5.236.584-.873 1.95-2.987.317-3.405z"/></g><path d="m81.927 42.928-3.521 1.366-1.643.779a4.7 4.7 0 0 0-.261 1.533c-.022 2.786 3.854 1.602 3.854 1.602s6.128-.518 6.15-3.304l-1.087-.521z" class="C"/><path d="M83.541 59.439c-1.104.226-2.231.32-3.358.283a5.7 5.7 0 0 1-3.106-1.052 3.6 3.6 0 0 1-1.057-1.229 3.6 3.6 0 0 1-.404-1.569q.002-.028-.009-.055c-.011-.027-.017-.033-.029-.047a.14.14 0 0 0-.1-.043.144.144 0 0 0-.144.138 3.85 3.85 0 0 0 1.57 3.031 5.97 5.97 0 0 0 3.257 1.109l.572.019a16.6 16.6 0 0 0 2.852-.314.14.14 0 0 0 .092-.058.14.14 0 0 0 .023-.05.2.2 0 0 0 .002-.055q-.013-.054-.058-.086c-.045-.032-.066-.027-.102-.021z" class="B"/><path d="M77.351 33.599c-.732.025-1.297.81-1.256 1.753s1.234 2.227 1.966 2.199.716-1.35.682-2.293-.66-1.687-1.391-1.658z" class="C"/><path d="M76.867 34.058q-.057-.007-.104.028c-.047.035-.05.055-.056.092a.14.14 0 0 0 .119.16 1.02 1.02 0 0 1 .789.628 1.3 1.3 0 0 0-.694.038.14.14 0 0 0-.071.068q-.022.047-.009.098c.013.051.029.061.057.08s.062.027.096.024a.87.87 0 0 1 .628 0c.144.085.195.279.254.506q.046.203.126.396.018.037.053.059c.035.022.049.022.076.023a.1.1 0 0 0 .044 0q.05-.018.077-.062c.027-.044.023-.064.017-.098-.333-1.661-.895-1.96-1.401-2.038z" class="B"/><path d="m84.232 40.808-3.819-.132-.258 1.696-.468 3.081 4.799.17-.166-3.16z" class="C"/><path d="m80.416 40.676-.132.917a4.44 4.44 0 0 0 2.532 1.087 3.5 3.5 0 0 0 1.504-.217l-.088-1.655zm6.719-7.374c.077-2.579-2.097-4.738-4.857-4.82s-5.06 1.941-5.137 4.521 2.097 4.738 4.857 4.82 5.06-1.941 5.137-4.521" class="B"/><path d="M82.637 29.758c-2.663-.091-4.915 2.613-5.026 6.043s1.944 6.282 4.605 6.382 4.919-2.613 5.025-6.046-1.941-6.285-4.605-6.379z" class="C"/><path d="M84.053 35.33c-.292 0-.509-.512-.521-.21a.53.53 0 0 0 .141.379.5.5 0 0 0 .167.12.5.5 0 0 0 .201.047.5.5 0 0 0 .203-.033.53.53 0 0 0 .296-.275.5.5 0 0 0 .047-.2c.009-.302-.245.185-.534.173zm-3.731-.921c-.182 0-.339.232-.349.534s.129.55.314.556.336-.232.349-.534-.129-.55-.314-.556m3.241-.788a.16.16 0 0 0-.107.141l-.056.283c-.019.094.025.176.091.148a.9.9 0 0 1 .886.072 1.2 1.2 0 0 1 .389.477c.056.123.207-.035.173-.182a1.3 1.3 0 0 0-.346-.66 1.23 1.23 0 0 0-1.03-.28zm-2.855-.097a1.2 1.2 0 0 0-.547-.017 1.2 1.2 0 0 0-.499.224 1.3 1.3 0 0 0-.389.628c-.044.148.094.314.16.195a1.2 1.2 0 0 1 .421-.452.91.91 0 0 1 .889 0c.063.031.113-.041.101-.141l-.035-.289c-.012-.094-.053-.141-.1-.148zm1.938 3.574a1 1 0 0 0-.443.079l-.1.038c-.116.035-.264.047-.314-.025s-.044-.223 0-.361l.314-1.388q.007-.027.003-.054a.14.14 0 0 0-.056-.09.1.1 0 0 0-.05-.021q-.056-.013-.106.017c-.05.03-.055.051-.063.087l-.314 1.388a.68.68 0 0 0 .079.628.47.47 0 0 0 .361.141 1 1 0 0 0 .254-.041l.113-.038a.7.7 0 0 1 .314-.066.1.1 0 0 0 .055-.003.14.14 0 0 0 .05-.025q.022-.017.036-.042c.014-.025.015-.034.017-.053s.004-.043-.002-.064-.016-.041-.03-.057-.032-.029-.052-.038a.14.14 0 0 0-.064-.011z" class="B"/><path d="M81.157 39.312a1.57 1.57 0 0 0 1.294.685 1.52 1.52 0 0 0 1.324-.66 1.52 1.52 0 0 0 .136-1.473 2.79 2.79 0 0 1-2.755 1.448z" fill="#fff"/><g class="B"><path d="M82.794 28.116a4.4 4.4 0 0 0-2.154-.167 4.4 4.4 0 0 0-3.29 2.594 4.4 4.4 0 0 0-.341 2.134c.057.817.525 2.692 1.655 1.552.264-.27.43-.628.716-.87.402-.349.967-.418 1.457-.628 1.256-.524 1.925-1.862 2.494-3.097.151-.33.314-.716.144-1.043a1.1 1.1 0 0 0-.681-.474z"/><path d="M82.797 27.754a2.14 2.14 0 0 0-1.417.314c-.65.496-.587 1.404-.763 2.101-.201.81-.176 1.492.65 2.02.666.427 1.489.512 2.268.666s1.605.434 2.035 1.084c.298.452.358 1.014.575 1.508s.725.961 1.256.826a5.6 5.6 0 0 0 .188-5.544 5.87 5.87 0 0 0-4.793-2.974z"/></g><path d="M88.105 33.973c-.729-.078-1.398.628-1.498 1.57s-.207 2.258.521 2.337 2.013-1.118 2.114-2.057-.408-1.772-1.137-1.85" class="C"/><path d="M88.557 34.466c-.512.041-1.093.314-1.536 1.919q-.014.051.009.099c.023.048.041.055.073.068a.2.2 0 0 0 .053 0q.038.001.072-.019c.034-.02.039-.031.051-.053q.094-.186.154-.386c.075-.223.141-.415.289-.487a.87.87 0 0 1 .628.047.14.14 0 0 0 .1-.016.141.141 0 0 0-.012-.251 1.35 1.35 0 0 0-.688-.085 1.02 1.02 0 0 1 .829-.565.14.14 0 0 0 .059-.01.14.14 0 0 0-.08-.269z" class="B"/><path d="M102.333 84.101c-1.448-.961-14.42-3.628-16.053-3.788-2.378-.232-4.215 2.89-5.157 4.941a1.93 1.93 0 0 0 .886 2.541c2.268 1.128 6.436 3.094 8.958 3.631 2.629.559 7.387.974 9.759 1.156a1.593 1.593 0 0 0 1.696-1.319c.393-2.255.961-6.467-.088-7.161z" class="D"/><path d="M101.318 86.159A22.7 22.7 0 0 1 95.59 88.8c-2.293.691-4.046.669-5.362-.072-1.011-.569-1.743-1.57-2.39-2.444l-3.332-4.539q-.017-.023-.041-.038c-.024-.015-.034-.016-.052-.019s-.037-.002-.055.002-.035.012-.05.023-.029.024-.038.04-.017.033-.02.052-.002.038.002.056.013.035.024.05l3.336 4.539c.663.905 1.413 1.928 2.478 2.513a5.1 5.1 0 0 0 2.541.609 10.8 10.8 0 0 0 3.04-.512 23 23 0 0 0 5.801-2.676q.024-.015.041-.039c.017-.024.018-.033.021-.051a.2.2 0 0 0 .001-.056.14.14 0 0 0-.022-.052q-.016-.022-.04-.037c-.024-.015-.033-.016-.051-.018s-.037-.002-.055.003-.034.013-.049.024z" class="B"/><g class="C"><path d="M88.086 46.769c-2.78 2.227-6.483 1.146-5.949 4.507 1.099 6.888 10.321 17.247 10.321 17.247l-2.544 18.192 4.595 2.78s7.516-20.353 4.941-25.564c-1.991-4.03-11.364-17.162-11.364-17.162"/><path d="M93.583 86.636c-.942-.814-2.679-1.231-4.564-1.536-.525-.085-1.143-.437-1.511-.361-.942.195.992 1.476 1.753 2.148s-.459 4.925.484 5.236 3.238-1.033 3.722-2.133c.631-1.407 1.203-2.412.116-3.355z"/><path d="M93.972 87.422c-.437.113-.493 1.514-.578 1.885l-.521 2.359a1.65 1.65 0 0 0-.038.848.78.78 0 0 0 .678.569c.339-.028.763-2.095.836-2.406.107-.377.845-3.574-.377-3.254z"/><path d="M93.199 87.463c-.437.113-.493 1.514-.578 1.885L92.1 91.71a1.65 1.65 0 0 0-.038.848.78.78 0 0 0 .675.569c.342-.028.766-2.095.839-2.406.1-.38.854-3.578-.377-3.257z"/><path d="M92.288 87.384c-.436.113-.493 1.514-.578 1.885l-.521 2.359a1.7 1.7 0 0 0-.038.851.785.785 0 0 0 .678.565c.339-.028.763-2.095.835-2.403.091-.377.848-3.574-.377-3.257z"/><path d="M91.359 87.246c-.437.113-.493 1.514-.578 1.885l-.521 2.359a1.7 1.7 0 0 0-.038.851.78.78 0 0 0 .678.565c.339-.025.763-2.095.835-2.403.091-.377.835-3.574-.377-3.257z"/></g><path d="M97.047 53.484c-1.954-1.652-4.187-3.207-5.939-5.072-1.36-1.445-2.827-2.437-4.96-2.082a5.66 5.66 0 0 0-2.358 1.037 5.65 5.65 0 0 0-1.653 1.975 6.3 6.3 0 0 0-.194 5.053c.54 1.385 1.526 2.544 2.246 3.844 1.256 2.287 1.655 4.934 2.513 7.403a5.9 5.9 0 0 0 .942 1.85 2.4 2.4 0 0 0 1.79.942c1.178 0 2.026-1.071 2.786-1.969a17.3 17.3 0 0 1 4.812-3.926c1.118-.628 2.374-1.172 3.009-2.28.669-1.165.44-2.679-.232-3.844s-1.734-2.064-2.761-2.931z" class="D"/><g class="C"><path d="M64.834 14.585c-.763-.65-.587 1.781-.656 2.849s-3.289 2.032-2.937 3.018 1.853 2.789 3.081 2.484c1.57-.389 2.764-.553 2.852-2.067.075-1.3-.704-3.028-1.665-4.793-.264-.49-.374-1.231-.675-1.492z"/><path d="m62.105 19.421-.883-2.387a1.8 1.8 0 0 0-.452-.776.86.86 0 0 0-.443-.198.7.7 0 0 0-.48.082c-.101.079.594 2.491.628 2.61a13 13 0 0 0 .836 1.885 2.6 2.6 0 0 0 .672.835.465.465 0 0 0 .681-.066c.201-.22-.022-.81-.248-1.316z"/><path d="M61.269 14.867a1.8 1.8 0 0 0-.452-.785c-.124-.11-.279-.18-.444-.2s-.332.009-.48.084c-.286.217.518 2.293.628 2.607.138.393 1.294 3.656 2.199 2.679.314-.352-.427-1.624-.569-2.007l-.883-2.378z"/><path d="M61.731 12.976a1.8 1.8 0 0 0-.449-.779c-.124-.11-.279-.18-.444-.2s-.332.009-.48.084c-.289.217.515 2.293.628 2.607.141.393 1.297 3.656 2.199 2.676.314-.349-.427-1.621-.569-2.004l-.886-2.384z"/><path d="M62.943 12.534a1.8 1.8 0 0 0-.449-.773c-.124-.11-.279-.18-.444-.2s-.332.009-.48.084c-.286.217.515 2.293.628 2.607.141.393 1.297 3.656 2.199 2.676.314-.349-.424-1.621-.565-2.004z"/><path d="M64.303 15.894a7 7 0 0 0-1.219-1.498c-.342-.314-.814-.587-1.256-.427a1 1 0 0 0-.357.276 1 1 0 0 0-.196.406 2.8 2.8 0 0 0-.047.908l.148 2.72c.035.663.148 1.445.741 1.737.471.226 1.037.028 1.47-.264.656-.443 1.731-1.589 1.517-2.469-.097-.44-.569-1.002-.801-1.388z"/></g><path d="M88.045 42.752a3.4 3.4 0 0 0-1.734-.254 2.04 2.04 0 0 0-.927.239.87.87 0 0 0-.452.798l-.729-.1a1.15 1.15 0 0 1-.508 1.147 1.15 1.15 0 0 1-1.255.008.86.86 0 0 1-.131.936.86.86 0 0 1-.912.251c-.279-.088-.572-.314-.835-.192-.339.17-.286.81-.66.873s-.587-.575-.964-.512c-.298.047-.368.506-.656.6s-.528-.232-.477-.509a.86.86 0 0 1 .565-.569c.261-.101.543-.141.798-.258a1.46 1.46 0 0 0 .81-1.48c-.254-1.919-2.965-1.338-3.992-.54a6.6 6.6 0 0 0-1.819 2.513c-.396.857-.71 1.793-.603 2.733s.726 1.885 1.646 2.089c.6.085 1.212.019 1.781-.191 3.631-1.021 7.321-2.067 10.516-4.083.795-.499 1.643-1.234 1.57-2.17a1.74 1.74 0 0 0-1.033-1.329z" class="D"/><path d="M85.573 46.766a10.3 10.3 0 0 1-3.772 2.313 10.3 10.3 0 0 1-4.394.514c-1.043-.107-1.765-.377-2.271-.845s-.851-1.46-.393-2.12a.143.143 0 0 0-.034-.198.143.143 0 0 0-.198.034c-.553.798-.214 1.885.433 2.491.553.512 1.325.804 2.434.92a10 10 0 0 0 1.052.053 10.6 10.6 0 0 0 7.334-2.968c.026-.027.041-.063.041-.1s-.015-.074-.041-.101-.061-.037-.097-.035-.07.016-.094.042m10.573 11.916a11.18 11.18 0 0 0-7.208 4.972q-.015.023-.021.051c-.006.028-.003.037.001.055s.012.035.023.05.025.028.041.038a.2.2 0 0 0 .075.022.14.14 0 0 0 .069-.019.14.14 0 0 0 .05-.05 10.9 10.9 0 0 1 7.023-4.84q.056-.013.089-.061c.033-.048.029-.069.024-.105a.1.1 0 0 0-.021-.052.2.2 0 0 0-.039-.04.14.14 0 0 0-.107-.022zM66.788 42.004c-.82.854-1.319 1.928-1.803 2.971l-2.133 4.598a.15.15 0 0 0-.004.108.14.14 0 0 0 .073.08.14.14 0 0 0 .06 0 .15.15 0 0 0 .077-.024.14.14 0 0 0 .052-.061l2.136-4.583c.474-1.021.967-2.073 1.753-2.893q.039-.043.04-.1c.001-.057-.014-.073-.04-.101q-.021-.021-.048-.033c-.027-.012-.038-.011-.057-.011a.14.14 0 0 0-.104.047z" class="B"/></g></g><defs><clipPath id="B"><path fill="#fff" d="M0 0h160v160H0z"/></clipPath><clipPath id="C"><path fill="#fff" d="M0 9.999h160v140.212H0z"/></clipPath><path id="D" d="M18.867 79.987h-5.126v69.301h5.126z"/></defs></svg>