<svg width="160" height="160" viewBox="0 0 160 160" fill="none" xmlns="http://www.w3.org/2000/svg">
    <g clip-path="url(#a)">
        <g clip-path="url(#b)">
            <path d="M52.219 8.29c-12.772 1.145-35.276 15.644-34.04 38.421 1.235 22.777 71.739-41.799 34.04-38.42"
                  fill="#FFD7B3"/>
            <path d="M118.564 14.246a68.4 68.4 0 0 0-11.117-4.487l-.176-.052c-.487-.14-.975-.273-1.443-.4l-.355-.088a49 49 0 0 0-3.902-.8l-.305-.042q-1.035-.15-2.039-.24l-.325-.026a32 32 0 0 0-4.689-.043h-.244q-.684.048-1.35.13l-.324.04c-1.514.199-3.01.516-4.475.949l-.325.1a29 29 0 0 0-2.546.92c-17.965 7.398-28.513 31.466-53.355 44.921-40.32 21.844-31.189 81.088 21.669 94.907 27.583 7.212 74.327-5.075 91.06-29.459 28.715-41.818 5.905-90.514-25.759-106.33"
                  fill="#FFD7B3"/>
            <mask id="c" style="mask-type:luminance" maskUnits="userSpaceOnUse" x="6" y="8" width="152" height="145">
                <path d="M53.266 150.036c27.58 7.209 74.324-5.079 91.044-29.459 28.727-41.822 5.921-90.514-25.746-106.33-44.729-22.342-50.136 20.927-86.97 40.879-40.32 21.844-31.19 81.087 21.672 94.91"
                      fill="#fff"/>
            </mask>
            <g mask="url(#c)" fill="#DBCAC2">
                <path d="M174 22.7H-10v.663h184zm0-8.696H-10v.663h184z"/>
                <path d="M8.898 14.533h-.663v8.497h.663zm22.475 0h-.663v8.497h.663zm22.475 0h-.663v8.497h.663zm22.472 0h-.664v8.497h.664zm22.474 0h-.663v8.497h.663zm22.475 0h-.663v8.497h.663zm22.475 0h-.663v8.497h.663zM174 31.315H-10v.663h184z"/>
                <path d="M14.91 23.147h-.663v8.496h.663zm22.472 0h-.663v8.496h.663zm22.475 0h-.664v8.496h.664zm22.475 0h-.663v8.496h.663zm22.475 0h-.664v8.496h.664zm22.471 0h-.663v8.496h.663zm22.475 0h-.663v8.496h.663zM174 39.928H-10v.663h184z"/>
                <path d="M8.898 31.762h-.663v8.496h.663zm22.475 0h-.663v8.496h.663zm22.475 0h-.663v8.496h.663zm22.472 0h-.664v8.496h.664zm22.474 0h-.663v8.496h.663zm22.475 0h-.663v8.496h.663zm22.475 0h-.663v8.496h.663zM174 48.543H-10v.663h184z"/>
                <path d="M14.91 40.377h-.663v8.496h.663zm22.472 0h-.663v8.496h.663zm22.475 0h-.664v8.496h.664zm22.475 0h-.663v8.496h.663zm22.475 0h-.664v8.496h.664zm22.471 0h-.663v8.496h.663zm22.475 0h-.663v8.496h.663zM174 57.156H-10v.664h184z"/>
                <path d="M8.898 48.99h-.663v8.497h.663zm22.475 0h-.663v8.497h.663zm22.475 0h-.663v8.497h.663zm22.472 0h-.664v8.497h.664zm22.474 0h-.663v8.497h.663zm22.475 0h-.663v8.497h.663zm22.475 0h-.663v8.497h.663zM174 65.77H-10v.663h184z"/>
                <path d="M14.91 57.604h-.663V66.1h.663zm22.472 0h-.663V66.1h.663zm22.475 0h-.664V66.1h.664zm22.475 0h-.663V66.1h.663zm22.475 0h-.664V66.1h.664zm22.471 0h-.663V66.1h.663zm22.475 0h-.663V66.1h.663zM174 74.383H-10v.663h184z"/>
                <path d="M8.898 66.217h-.663v8.496h.663zm22.475 0h-.663v8.496h.663zm22.475 0h-.663v8.496h.663zm22.472 0h-.664v8.496h.664zm22.474 0h-.663v8.496h.663zm22.475 0h-.663v8.496h.663zm22.475 0h-.663v8.496h.663zM174 82.996H-10v.663h184z"/>
                <path d="M14.91 74.832h-.663v8.496h.663zm22.472 0h-.663v8.496h.663zm22.475 0h-.664v8.496h.664zm22.475 0h-.663v8.496h.663zm22.475 0h-.664v8.496h.664zm22.471 0h-.663v8.496h.663zm22.475 0h-.663v8.496h.663zM174 91.457H-10v.663h184z"/>
                <path d="M8.898 83.291h-.663v8.496h.663zm22.475 0h-.663v8.496h.663zm22.475 0h-.663v8.496h.663zm22.472 0h-.664v8.496h.664zm22.474 0h-.663v8.496h.663zm22.475 0h-.663v8.496h.663zm22.475 0h-.663v8.496h.663zM174 100.07H-10v.664h184z"/>
                <path d="M14.91 91.904h-.663v8.497h.663zm22.472 0h-.663v8.497h.663zm22.475 0h-.664v8.497h.664zm22.475 0h-.663v8.497h.663zm22.475 0h-.664v8.497h.664zm22.471 0h-.663v8.497h.663zm22.475 0h-.663v8.497h.663zM174 108.684H-10v.663h184z"/>
                <path d="M8.898 100.518h-.663v8.496h.663zm22.475 0h-.663v8.496h.663zm22.475 0h-.663v8.496h.663zm22.472 0h-.664v8.496h.664zm22.474 0h-.663v8.496h.663zm22.475 0h-.663v8.496h.663zm22.475 0h-.663v8.496h.663zM174 117.301H-10v.663h184z"/>
                <path d="M14.91 109.133h-.663v8.496h.663zm22.472 0h-.663v8.496h.663zm22.475 0h-.664v8.496h.664zm22.475 0h-.663v8.496h.663zm22.475 0h-.664v8.496h.664zm22.471 0h-.663v8.496h.663zm22.475 0h-.663v8.496h.663zM174 125.914H-10v.663h184z"/>
                <path d="M8.898 117.746h-.663v8.496h.663zm22.475 0h-.663v8.496h.663zm22.475 0h-.663v8.496h.663zm22.472 0h-.664v8.496h.664zm22.474 0h-.663v8.496h.663zm22.475 0h-.663v8.496h.663zm22.475 0h-.663v8.496h.663zM174 134.527H-10v.664h184z"/>
                <path d="M14.91 126.359h-.663v8.497h.663zm22.472 0h-.663v8.497h.663zm22.475 0h-.664v8.497h.664zm22.475 0h-.663v8.497h.663zm22.475 0h-.664v8.497h.664zm22.471 0h-.663v8.497h.663zm22.475 0h-.663v8.497h.663zM174 143.141H-10v.663h184z"/>
                <path d="M8.898 134.975h-.663v8.496h.663zm22.475 0h-.663v8.496h.663zm22.475 0h-.663v8.496h.663zm22.472 0h-.664v8.496h.664zm22.474 0h-.663v8.496h.663zm22.475 0h-.663v8.496h.663zm22.475 0h-.663v8.496h.663zM174 151.754H-10v.663h184z"/>
                <path d="M14.91 143.588h-.663v8.496h.663zm22.472 0h-.663v8.496h.663zm22.475 0h-.664v8.496h.664zm22.475 0h-.663v8.496h.663zm22.475 0h-.664v8.496h.664zm22.471 0h-.663v8.496h.663zm22.475 0h-.663v8.496h.663z"/>
            </g>
            <path d="M148.491 152.014H10.973v.331H148.49z" fill="#260D19"/>
            <path d="M42.227 68.21c-2.179-3.056-10.73-8.61-18.42 2.15s-8.584 16.752-18.352 35.084.214 47.073 43.012 46.722c41.005-.335 47.833-23.857 46.256-33.228-2.942-17.347-32.675-22.924-52.496-50.728"
                  fill="#508A82"/>
            <path d="M78.417 105.152c-8.822-.449-12.867-6.178-26.283-17.822s-22.816-13.8-24.672 2.991c-1.512 13.592-11.654 18.209-11.654 18.209 6.097-.738 13.78 9.7 21.805 11.16 15.51 2.809 39.36 1.476 48.123-6.725 1.597-1.486 1.506-7.365-7.32-7.813"
                  fill="#E6E3E4" style="mix-blend-mode:multiply"/>
            <path d="M56.42 123.793c-3.437-3.193-7.804-3.713-12.03-4.227-6.485-.774-12.607-1.505-16.047-10.974-5.707-15.724 3.4-41.831 3.495-42.095l-.354-.11c-.095.263-9.245 26.48-3.467 42.329 3.515 9.676 10.041 10.457 16.356 11.211 4.155.494 8.454 1.008 11.8 4.12 3.902 3.635 4.636 10.122 1.853 16.524-2.178 5.008-6.955 10.36-13.829 10.36v.354c7.056 0 11.95-5.466 14.174-10.58 2.829-6.542 2.068-13.172-1.951-16.912"
                  fill="#260D19"/>
            <path d="M79.314 112.244c-4.347-1.321-7.654-1.366-10.57-1.408-5.281-.075-9.84-.14-18.55-7.479C36.776 92.067 36.656 67.151 36.656 66.9h-.374c0 .25.117 25.324 13.657 36.72 8.815 7.417 13.438 7.479 18.794 7.557 3.03.046 6.178.088 10.463 1.392 6.126 1.856 8.432 8.74 8.549 14.564.133 6.743-2.748 15.041-9.394 17.317l.13.326c6.828-2.338 9.774-10.792 9.638-17.656-.114-5.928-2.491-12.961-8.806-14.876m-51.689 35.574a39.2 39.2 0 0 1-9.534-5.001 28.1 28.1 0 0 1-7.234-7.624 26.1 26.1 0 0 1-3.623-9.638c-.065-.426-.152-.846-.195-1.275l-.156-1.291c-.052-.858-.12-1.713-.114-2.575.007-.862.03-1.717.056-2.575s.117-1.714.237-2.569q.314-2.566.884-5.089c.404-1.677.836-3.352 1.366-5a84 84 0 0 1 3.775-9.713c1.43-3.174 3.024-6.279 4.728-9.335-1.756 3.027-3.408 6.11-4.897 9.267a85 85 0 0 0-3.87 9.693 53.5 53.5 0 0 0-2.311 10.132c-.124.858-.172 1.723-.247 2.585a22 22 0 0 0-.065 2.601c.026.868.055 1.733.107 2.601l.14 1.301c.042.432.13.858.192 1.3a26.4 26.4 0 0 0 3.7 9.755 27.8 27.8 0 0 0 7.355 7.677 39.4 39.4 0 0 0 9.64 4.946 49 49 0 0 0 5.252 1.525c1.779.42 3.583.721 5.401.904a42 42 0 0 1-5.378-.995 50 50 0 0 1-5.21-1.607"
                  fill="#260D19"/>
            <path d="m70.516 71.507-2.81-5.629c-.471-.943-.956-1.905-1.72-2.63-.55-.517-1.232-.9-1.687-1.502-.537-.71-.69-1.626-.908-2.485a29 29 0 0 0-1.186-3.427q-1.25-3.157-2.491-6.308c-.468-1.19-.976-2.422-1.912-3.287-1.197-1.09-2.89-1.385-4.455-1.258-1.2.097-2.822.23-3.954.692-2.679 1.093-4.552 5.567-4.37 8.26.107 1.599.806 3.228.306 4.753-.465 1.42-1.834 2.312-3.073 3.147-1.239.836-2.543 1.893-2.741 3.376-.163 1.21.465 2.454.153 3.632-.29 1.092-1.3 1.837-1.776 2.867-.68 1.516.04 3.402 1.356 4.41s3.086 1.261 4.738 1.102c1.652-.16 3.252-.69 4.848-1.109a36.5 36.5 0 0 1 18.32 0c1.167.306 2.542.628 3.466-.146a2.45 2.45 0 0 0 .718-2.198 7.2 7.2 0 0 0-.822-2.26"
                  fill="#260D19"/>
            <path d="M77.851 80.563a18.4 18.4 0 0 0-3.873-5.944l-5.316-6.36a2 2 0 0 0-.325-.26c-1.23-1.07-3.222-2-5.892-2.998-.917-.342-3.72-1.22-3.72-1.22l-.543 7.902-2.38 1.95 3.401 2.504 6.247 10.226a21.1 21.1 0 0 0-3.525 5.203c-.709 1.486-1.662 3.359-3.505 2.848a2.85 2.85 0 0 1-1.24-.764l-2.584-2.019a.875.875 0 0 0-1.483.478c-.13.907-1.245-.023-.832.839a19.2 19.2 0 0 0 2.744 4.198 5.225 5.225 0 0 0 6.568 1.121 123 123 0 0 0 12.031-7.992c2.188-1.642 4.598-3.638 4.851-6.571a3.7 3.7 0 0 0-.058-1.096 8.4 8.4 0 0 0-.566-2.045m-11.38 4.744c.02-1.08.065-2.377.156-3.7l2.295 1.69a21 21 0 0 0-2.442 2.01z"
                  fill="#ECB8A4"/>
            <path d="m51.146 91.913-3.713 3.047a2.85 2.85 0 0 1-1.301.67c-1.88.374-2.69-1.561-3.287-3.099a21.2 21.2 0 0 0-2.644-4.79l7.277-11.926 2.36-1.626-1.45-1.265-.63-9.137s-2.803.878-3.72 1.22c-2.182.816-3.902 1.586-5.147 2.422a2.6 2.6 0 0 0-.508.367c-.366.282-.694.61-.975.976l-5.759 5.853a18.4 18.4 0 0 0-4.048 5.823 6.85 6.85 0 0 0-.67 2.927v.117c.04 2.946 2.296 5.111 4.357 6.91a122 122 0 0 0 11.4 8.85 5.23 5.23 0 0 0 6.634-.65 19 19 0 0 0 3.043-3.984c.478-.832.286-1.206.221-2.123a.872.872 0 0 0-1.44-.582m-11.098-4.409a21.3 21.3 0 0 0-3.804-3.902l3.596-2.484c.208 2.644.208 5.287.208 6.386"
                  fill="#ECB8A4"/>
            <path d="M65.908 99.188c-8.91-.118-17.633.325-26.546.396a63.2 63.2 0 0 0-2.79 13.211c-.146 1.444-.224 2.985.462 4.26.89 1.658 2.826 2.439 4.653 2.894 4.61 1.154 9.43 1.07 14.18.975 3.385-.065 6.796-.12 10.08-.975 1.148-.303 2.35-.712 3.073-1.652.975-1.262.76-3.037.474-4.601a121 121 0 0 0-3.586-14.508"
                  fill="#260D19"/>
            <path d="M88.822 98.53c-3.167-1.82-17.663 2.576-22.589 5.291.166 4.503 1.21 9.104 2.514 13.104l16.108-8.035c1.909-.953 3.87-1.951 5.202-3.814 1.334-1.863 1.087-5.196-1.235-6.545m-73.599 2.654c-2.11 1.681-1.847 5.014-.25 6.659s3.686 2.338 5.715 2.995l17.126 5.547c.693-4.149 1.038-8.854.534-13.332-5.278-1.954-20.267-4.142-23.125-1.869"
                  fill="#ECB8A4"/>
            <path d="M59.337 63.964c-.199-.091-.326-.13-.53-.212-.433-.192-.92-.325-1.337-.504l-.712-.29c-2.071-.819-3.661-1.33-3.661-1.33s-1.724.544-3.948 1.406l-.432.169c-.585.237-1.197.487-1.82.76l-.372.166c-.28.124-.39.11-.65.244.104.758 0 1.658.03 2.416.282 6.939-2.514 12.808-6.66 18.508l-.767 16.999s2.601-2.344 4.8-1.365c4.792 2.136 7.338 2.37 13.269 2.37 1.7 0 3.684-1.831 6.526-1.525a15.3 15.3 0 0 1 3.954.976l-.394-16.46c-4.51-6.302-6.522-14.346-7.296-22.328"
                  fill="#C93D2F"/>
            <path d="M58.706 51.214c-.813-.056-1.532.744-1.607 1.791s-.143 2.52.67 2.579c.813.058 2.198-1.324 2.276-2.37.078-1.048-.526-1.942-1.34-2"
                  fill="#ECB8A4"/>
            <path d="M59.233 51.748c-.566.065-1.207.377-1.626 2.191a.156.156 0 0 0 .1.182.2.2 0 0 0 .053 0 .15.15 0 0 0 .14-.087q.096-.21.155-.433c.075-.25.14-.465.303-.556.229-.074.477-.064.699.03q.03.008.06.005a.15.15 0 0 0 .132-.11.156.156 0 0 0-.104-.195 1.5 1.5 0 0 0-.768-.068 1.13 1.13 0 0 1 .901-.65.156.156 0 0 0 .137-.173.15.15 0 0 0-.182-.136"
                  fill="#260D19"/>
            <path d="m55.431 62.445-.185-1.586-.221-1.896h-4.247L50.62 60.8l-.166 1.73c-.413.153-.852.325-1.32.497a4.2 4.2 0 0 0-.377 1.746c0 1.34 8.395 1.301 8.395 0a4.2 4.2 0 0 0-.41-1.82c-.461-.189-.9-.355-1.31-.508"
                  fill="#ECB8A4"/>
            <path d="m50.779 58.963-.16 1.837a3.85 3.85 0 0 0 1.662.3 4.92 4.92 0 0 0 2.858-1.113l-.11-1.024zm2.276-13.471c-3.07 0-5.557 2.325-5.557 5.203 0 2.877 2.487 5.202 5.557 5.202 3.069 0 5.556-2.328 5.556-5.202s-2.493-5.203-5.556-5.203"
                  fill="#260D19"/>
            <path d="M52.976 60.57c2.964 0 5.366-3.095 5.366-6.913s-2.402-6.913-5.366-6.913-5.365 3.095-5.365 6.913 2.402 6.913 5.365 6.913"
                  fill="#ECB8A4"/>
            <path d="M46.737 51.214c-.813.058-1.411.956-1.337 2 .075 1.043 1.46 2.428 2.276 2.37.817-.059.745-1.532.67-2.579s-.796-1.847-1.61-1.791"
                  fill="#ECB8A4"/>
            <path d="M46.226 51.748a.15.15 0 0 0-.155.078.2.2 0 0 0-.017.059.156.156 0 0 0 .136.172 1.13 1.13 0 0 1 .901.65 1.5 1.5 0 0 0-.767.068.155.155 0 0 0-.11.135q-.003.03.006.06a.153.153 0 0 0 .192.105c.222-.094.47-.104.699-.03.162.091.227.306.302.556q.06.223.156.433l.192.078a.156.156 0 0 0 .1-.182c-.441-1.805-1.082-2.117-1.635-2.182m8.038 3.27c-.237.14-.506.215-.78.218a.33.33 0 0 1-.17-.03c-.074-.051-.07-.214-.061-.324l.143-1.89a.163.163 0 0 0-.325-.025l-.146 1.892a.65.65 0 0 0 .195.608c.097.062.21.092.325.088h.02c.327-.005.648-.096.93-.264a.156.156 0 0 0-.157-.266zm1.304 1.337a3.33 3.33 0 0 1-3.187 1.014.16.16 0 0 0-.188.117.157.157 0 0 0 .117.189q.383.088.777.088a3.66 3.66 0 0 0 2.715-1.203.16.16 0 0 0 .034-.17.2.2 0 0 0-.034-.051.16.16 0 0 0-.184-.026.2.2 0 0 0-.05.042m-1.138 1.776a1.44 1.44 0 0 1-1.626.055.156.156 0 0 0-.172.257 1.73 1.73 0 0 0 1.993-.068.156.156 0 0 0-.192-.244zm-3.261-6.127c-.202 0-.368.27-.368.605s.166.608.368.608.367-.273.367-.608-.166-.605-.367-.605m4.201 0c-.205 0-.368.27-.368.605s.163.608.368.608.364-.273.364-.608-.163-.605-.364-.605m-3.457-.842c0-.084-.065-.152-.117-.159a1.35 1.35 0 0 0-1.154.27 1.4 1.4 0 0 0-.41.718c-.042.163.117.345.189.212.1-.21.256-.39.448-.52a1.01 1.01 0 0 1 .976-.043c.071.033.123-.048.107-.159-.016-.11-.023-.215-.039-.319m4.217.111a1.35 1.35 0 0 0-1.154-.27c-.052 0-.104.075-.117.16-.013.084-.032.21-.052.325-.02.113.036.191.107.159a1.01 1.01 0 0 1 .976.042c.193.132.349.31.452.52.068.134.227-.048.185-.211a1.4 1.4 0 0 0-.396-.725m-6.328-3.466c-.325 0-2.514 1.772-2.117 3.6.452 2.064.624 3.404.624 3.404s1.077-.82 1.077-2.927.764-4.077.416-4.077m7.349 0c-1.477.458.295 1.95.295 4.07s.777 2.927.777 2.927q.128-1.46.101-2.927c0-2.116-.943-4.142-1.174-4.07m-15.412 57.894c-.65-1.148-1.499-2.823-2.601-3.577-.885-.605-2.572-.65-3.603-.826a36 36 0 0 0-6-.585c.404 2.367 1.19 4.659 1.483 7.043.293 2.383 0 4.975-1.489 6.844l3.577 1.454q1.297.495 2.526 1.141c1.11.611 2.11 1.405 3.252 1.974 1.2.601 2.582.936 3.902.65s2.51-1.265 2.79-2.565c.22-1.008-.104-2.046-.423-3.028-.943-2.91-1.912-5.846-3.414-8.525m33.426 1.378c.108-2.4.716-4.748.93-7.138a36.4 36.4 0 0 0-5.944 1.054c-1.01.267-2.692.432-3.524 1.105-1.05.843-1.772 2.582-2.325 3.776-1.3 2.786-2.026 5.791-2.748 8.763-.244 1.001-.484 2.061-.185 3.049.387 1.285 1.671 2.173 3.001 2.345s2.686-.267 3.834-.976c1.082-.65 2.022-1.521 3.079-2.217a23 23 0 0 1 2.429-1.333l3.463-1.727c-1.642-1.73-2.124-4.305-2.01-6.701"
                  fill="#260D19"/>
            <path d="M67.966 114.112c-.842-.651-1.687-1.327-2.54-1.98-.757-.579-1.586-1.187-2.542-1.239-.836-.043-1.652.344-2.49.309a2.9 2.9 0 0 1-1.057-.27c-1.161-.521-2.134-1.626-3.385-2.006-1.19-.352-2.478.019-3.61.526-.952.416-1.876.933-2.867 1.223a12.4 12.4 0 0 1-1.896-.413c-3.944-1.239-10.867-6.906-14.941-8.129-1.837-.546-5.645-.631-9.036-.576l-8.617 6.312c3.824 4.77 19.792 6.77 30.006 7.579 2.468.195 4.597.325 6.139.4.282.039.569.081.851.13 1.951.303 3.902.628 5.83.933l.192.033c1.083.172 2.16.345 3.236.51l1.196.189c1.75.283 3.577.556 5.265-.029.721-.257 1.463-.774 1.538-1.538a1.53 1.53 0 0 0-.28-.976 4.6 4.6 0 0 0-.992-.988"
                  fill="#ECB8A4"/>
            <path d="M71.016 102.575c-3.902 1.864-9.823 8.357-13.595 10.217q-.887.425-1.827.718a26 26 0 0 1-3.183-.604c-1.259-.26-2.64-.371-3.782.169-1.55.735-2.377 2.529-4.07 2.926-.846.189-1.757-.026-2.602.169-.976.221-1.684.927-2.341 1.607q-1.106 1.134-2.192 2.276c-.553.588-1.138 1.32-.897 2.058s1.086 1.037 1.873 1.138c1.82.237 3.638-.345 5.368-.92l4.37-1.454c2.276-.754 4.526-1.518 6.796-2.276 7.999-1.804 31.54-7.595 35.208-13.926l-12.1-3.925c-2.831.524-5.608 1.151-7.026 1.827"
                  fill="#ECB8A4"/>
            <path d="M70.968 102.475c-2.007.956-4.553 3.138-7.02 5.251-2.332 1.997-4.741 4.062-6.575 4.966q-.871.416-1.792.705a16.4 16.4 0 0 1-2.276-.406l-.868-.195c-1.652-.325-2.875-.283-3.853.179a7 7 0 0 0-1.785 1.388c-.69.673-1.34 1.301-2.276 1.512a5.6 5.6 0 0 1-1.269.081 5.8 5.8 0 0 0-1.33.088c-.975.221-1.684.901-2.4 1.626-.763.787-1.501 1.561-2.19 2.292l.162.153c.69-.732 1.427-1.502 2.188-2.276.693-.712 1.389-1.369 2.276-1.577a5.4 5.4 0 0 1 1.281-.081q.656.029 1.301-.088c.975-.218 1.688-.904 2.37-1.567a6.7 6.7 0 0 1 1.727-1.35c.969-.439 2.14-.475 3.765-.149q.433.088.865.191 1.153.291 2.335.413h.043a13 13 0 0 0 1.84-.722c1.86-.916 4.174-2.9 6.623-4.997s4.991-4.276 6.968-5.219c1.22-.579 3.577-1.187 7.004-1.808l-.042-.221c-3.463.608-5.837 1.223-7.073 1.811"
                  fill="#260D19"/>
            <path d="M59.993 95.794c-.95.427-1.827 1-2.601 1.697l-.192.156c-.835.676-1.74 1.36-2.783 1.626-1.776.462-3.596-.306-5.355-1.047l-.365-.156c-1.655-.693-4.074-1.483-5.95-.325a.15.15 0 0 0 .156.253c1.762-1.07 4.084-.305 5.677.361l.364.153c1.418.598 2.875 1.213 4.341 1.213.407.001.813-.049 1.207-.15 1.102-.29 2.035-.975 2.897-1.69l.192-.153a9.8 9.8 0 0 1 2.516-1.652c.875-.325 2.124-.452 3.011.254a.15.15 0 0 0 .193-.036.15.15 0 0 0-.007-.195c-.982-.78-2.351-.664-3.3-.31"
                  fill="#E9EFFA"/>
            <path d="M73.517 80.778c-4.878 1.648-9.375 5.752-11.735 10.71a.156.156 0 0 0 .22.202.14.14 0 0 0 .063-.068c2.324-4.877 6.753-8.929 11.552-10.548a.15.15 0 0 0 .098-.198.15.15 0 0 0-.079-.09.16.16 0 0 0-.12-.008m-41.434.159a.157.157 0 0 0-.22.077.156.156 0 0 0 .1.21c4.669 1.967 8.779 6.324 10.746 11.38q.02.045.062.072a.14.14 0 0 0 .14.016.156.156 0 0 0 .09-.202c-1.976-5.13-6.174-9.556-10.918-11.553"
                  fill="#260D19"/>
            <path d="m27.992 77.91 10.482 5.563 1.259-2.146-.51 3.98 2.503-.247 5.219-12.834 2.208-9.199S36.576 64.296 27.992 77.91m28.926-14.883 2.191 9.183 5.203 12.834 2.305 1.274.1-4.5.85 1.626 10.496-5.534c-8.581-13.614-21.146-14.883-21.146-14.883"
                  fill="#C93D2F"/>
            <path d="M51.552 46.606a4.64 4.64 0 0 0-2.6 1.574 4.7 4.7 0 0 0-.866 2.865c-.007 1.036.095 2.07.306 3.085.735-.11 1.096-.923 1.577-1.489.67-.783 1.704-1.157 2.708-1.388s2.049-.364 2.985-.8c.937-.436 1.77-1.275 1.847-2.305a6.46 6.46 0 0 0-5.957-1.542"
                  fill="#260D19"/>
            <mask id="d" style="mask-type:luminance" maskUnits="userSpaceOnUse" x="43" y="103" width="4" height="2">
                <path d="M43.625 103.922h2.38a.31.31 0 0 1 .293.211l.039.163h-2.712l-.075-.28a.1.1 0 0 1 0-.034.07.07 0 0 1 .041-.053.1.1 0 0 1 .034-.007"
                      fill="#fff"/>
            </mask>
            <g mask="url(#d)">
                <path d="M46.34 103.918h-.046v.374h.046zm-.049 0h-.045v.374h.045z" fill="#A8CCFC"/>
                <path d="M46.246 103.918H46.2v.374h.046z" fill="#A9CDFC"/>
                <path d="M46.2 103.918h-.045v.374h.045z" fill="#AACDFC"/>
                <path d="M46.152 103.918h-.046v.374h.045z" fill="#ABCEFC"/>
                <path d="M46.106 103.918h-.046v.374h.046zm-.046 0h-.045v.374h.045z" fill="#ACCEFC"/>
                <path d="M46.012 103.918h-.046v.374h.046zm-.046 0h-.045v.374h.045z" fill="#ADCFFC"/>
                <path d="M45.92 103.918h-.045v.374h.045z" fill="#AED0FC"/>
                <path d="M45.872 103.918h-.046v.374h.046z" fill="#AFD0FC"/>
                <path d="M45.826 103.918h-.045v.374h.045z" fill="#B0D1FC"/>
                <path d="M45.78 103.918h-.045v.374h.046z" fill="#B1D1FC"/>
                <path d="M45.732 103.918h-.045v.374h.045zm-.046 0h-.045v.374h.045z" fill="#B2D2FC"/>
                <path d="M45.641 103.918h-.045v.374h.045z" fill="#B3D2FC"/>
                <path d="M45.592 103.918h-.045v.374h.045zm-.045 0H45.5v.374h.046z" fill="#B4D3FC"/>
                <path d="M45.501 103.918h-.045v.374h.045z" fill="#B5D4FC"/>
                <path d="M45.452 103.918h-.045v.374h.045z" fill="#B6D4FC"/>
                <path d="M45.407 103.918h-.046v.374h.046z" fill="#B7D5FC"/>
                <path d="M45.361 103.918h-.045v.374h.045z" fill="#B8D5FC"/>
                <path d="M45.313 103.918h-.046v.374h.046zm-.046 0h-.046v.374h.046z" fill="#B9D6FC"/>
                <path d="M45.222 103.918h-.046v.374h.045z" fill="#BAD7FD"/>
                <path d="M45.173 103.918h-.046v.374h.046z" fill="#BBD7FD"/>
                <path d="M45.127 103.918h-.045v.374h.045z" fill="#BCD7FD"/>
                <path d="M45.082 103.918h-.046v.374h.046z" fill="#BDD8FD"/>
                <path d="M45.033 103.918h-.046v.374h.046z" fill="#BED8FD"/>
                <path d="M44.987 103.918h-.045v.374h.045z" fill="#BFD9FD"/>
                <path d="M44.942 103.918h-.046v.374h.046z" fill="#C0D9FD"/>
                <path d="M44.893 103.918h-.045v.374h.045zm-.045 0h-.046v.374h.045z" fill="#C1DAFD"/>
                <path d="M44.802 103.918h-.045v.374h.045z" fill="#C2DBFD"/>
                <path d="M44.753 103.918h-.045v.374h.045z" fill="#C3DBFD"/>
                <path d="M44.708 103.918h-.046v.374h.046z" fill="#C4DCFD"/>
                <path d="M44.662 103.918h-.045v.374h.045z" fill="#C5DCFD"/>
                <path d="M44.613 103.918h-.045v.374h.045zm-.045 0h-.045v.374h.045z" fill="#C6DDFD"/>
                <path d="M44.522 103.918h-.045v.374h.045z" fill="#C7DEFD"/>
                <path d="M44.474 103.918h-.046v.374h.046z" fill="#C8DEFD"/>
                <path d="M44.428 103.918h-.045v.374h.045z" fill="#C9DEFD"/>
                <path d="M44.383 103.918h-.046v.374h.046z" fill="#CADFFD"/>
                <path d="M44.334 103.918h-.046v.374h.046z" fill="#CBDFFD"/>
                <path d="M44.288 103.918h-.045v.374h.045z" fill="#CCE0FD"/>
                <path d="M44.243 103.918h-.046v.374h.046z" fill="#CCE0FD"/>
                <path d="M44.194 103.918h-.046v.374h.046z" fill="#CDE1FD"/>
                <path d="M44.149 103.918h-.046v.374h.045z" fill="#CEE1FD"/>
                <path d="M44.103 103.918h-.046v.374h.046z" fill="#CFE2FD"/>
                <path d="M44.054 103.918h-.045v.374h.045z" fill="#D0E2FD"/>
                <path d="M44.009 103.918h-.046v.374h.046z" fill="#D1E3FD"/>
                <path d="M43.963 103.918h-.045v.374h.045z" fill="#D2E3FD"/>
                <path d="M43.914 103.918h-.045v.374h.045z" fill="#D3E4FD"/>
                <path d="M43.869 103.918h-.046v.374h.046z" fill="#D4E4FD"/>
                <path d="M43.823 103.918h-.045v.374h.045z" fill="#D5E5FD"/>
                <path d="M43.775 103.918h-.046v.374h.046z" fill="#D6E5FD"/>
                <path d="M43.73 103.918h-.046v.374h.045zm-.046 0h-.046v.374h.046z" fill="#D7E6FD"/>
                <path d="M43.635 103.918h-.046v.374h.046z" fill="#D8E7FD"/>
                <path d="M43.59 103.918h-.046v.374h.045z" fill="#D9E7FD"/>
            </g>
            <mask id="e" style="mask-type:luminance" maskUnits="userSpaceOnUse" x="46" y="103" width="4" height="2">
                <path d="M46.915 103.922h2.377a.3.3 0 0 1 .29.212l.035.162H46.9l-.068-.279a.08.08 0 0 1 .018-.069.1.1 0 0 1 .03-.021.1.1 0 0 1 .036-.005"
                      fill="#fff"/>
            </mask>
            <g mask="url(#e)">
                <path d="M49.618 103.92h-.046v.374h.045zm-.049 0h-.046v.374h.046z" fill="#A8CCFC"/>
                <path d="M49.523 103.92h-.046v.374h.046z" fill="#A9CDFC"/>
                <path d="M49.478 103.92h-.046v.374h.046z" fill="#AACDFC"/>
                <path d="M49.429 103.92h-.046v.374h.046z" fill="#ABCEFC"/>
                <path d="M49.383 103.92h-.045v.374h.045zm-.045 0h-.046v.374h.046z" fill="#ACCEFC"/>
                <path d="M49.292 103.92h-.045v.374h.045zm-.048 0h-.046v.374h.045z" fill="#ADCFFC"/>
                <path d="M49.198 103.92h-.045v.374h.045z" fill="#AED0FC"/>
                <path d="M49.153 103.92h-.046v.374h.046z" fill="#AFD0FC"/>
                <path d="M49.104 103.92h-.046v.374h.046z" fill="#B0D1FC"/>
                <path d="M49.058 103.92h-.045v.374h.045z" fill="#B1D1FC"/>
                <path d="M49.013 103.92h-.046v.374h.046zm-.049 0h-.045v.374h.045z" fill="#B2D2FC"/>
                <path d="M48.918 103.92h-.045v.374h.045z" fill="#B3D2FC"/>
                <path d="M48.873 103.92h-.046v.374h.046zm-.046 0h-.045v.374h.045z" fill="#B4D3FC"/>
                <path d="M48.779 103.92h-.046v.374h.046z" fill="#B5D4FC"/>
                <path d="M48.733 103.92h-.045v.374h.045z" fill="#B6D4FC"/>
                <path d="M48.688 103.92h-.046v.374h.046z" fill="#B7D5FC"/>
                <path d="M48.639 103.92h-.046v.374h.046z" fill="#B8D5FC"/>
                <path d="M48.593 103.92h-.045v.374h.045zm-.045 0h-.046v.374h.046z" fill="#B9D6FC"/>
                <path d="M48.499 103.92h-.046v.374h.046z" fill="#BAD7FD"/>
                <path d="M48.454 103.92h-.046v.374h.045z" fill="#BBD7FD"/>
                <path d="M48.408 103.92h-.046v.374h.046z" fill="#BCD7FD"/>
                <path d="M48.362 103.92h-.045v.374h.045z" fill="#BDD8FD"/>
                <path d="M48.314 103.92h-.046v.374h.046z" fill="#BED8FD"/>
                <path d="M48.268 103.92h-.045v.374h.045z" fill="#BFD9FD"/>
                <path d="M48.223 103.92h-.046v.374h.045z" fill="#C0D9FD"/>
                <path d="M48.174 103.92h-.046v.374h.046zm-.046 0h-.045v.374h.045z" fill="#C1DAFD"/>
                <path d="M48.083 103.92h-.046v.374h.046z" fill="#C2DBFD"/>
                <path d="M48.034 103.92h-.045v.374h.045z" fill="#C3DBFD"/>
                <path d="M47.988 103.92h-.045v.374h.045z" fill="#C4DCFD"/>
                <path d="M47.943 103.92h-.045v.374h.045z" fill="#C5DCFD"/>
                <path d="M47.894 103.92h-.045v.374h.045zm-.045 0h-.046v.374h.046z" fill="#C6DDFD"/>
                <path d="M47.803 103.92h-.045v.374h.045z" fill="#C7DEFD"/>
                <path d="M47.758 103.92h-.046v.374h.046z" fill="#C8DEFD"/>
                <path d="M47.709 103.92h-.046v.374h.046z" fill="#C9DEFD"/>
                <path d="M47.663 103.92h-.045v.374h.045z" fill="#CADFFD"/>
                <path d="M47.618 103.92h-.046v.374h.046z" fill="#CBDFFD"/>
                <path d="M47.569 103.92h-.046v.374h.046z" fill="#CCE0FD"/>
                <path d="M47.524 103.92h-.046v.374h.045z" fill="#CCE0FD"/>
                <path d="M47.478 103.92h-.046v.374h.046z" fill="#CDE1FD"/>
                <path d="M47.433 103.92h-.046v.374h.045z" fill="#CEE1FD"/>
                <path d="M47.384 103.92h-.046v.374h.046z" fill="#CFE2FD"/>
                <path d="M47.338 103.92h-.046v.374h.046z" fill="#D0E2FD"/>
                <path d="M47.293 103.92h-.046v.374h.046z" fill="#D1E3FD"/>
                <path d="M47.244 103.92h-.046v.374h.046z" fill="#D2E3FD"/>
                <path d="M47.198 103.92h-.045v.374h.045z" fill="#D3E4FD"/>
                <path d="M47.153 103.92h-.046v.374h.046z" fill="#D4E4FD"/>
                <path d="M47.104 103.92h-.045v.374h.045z" fill="#D5E5FD"/>
                <path d="M47.059 103.92h-.046v.374h.046z" fill="#D6E5FD"/>
                <path d="M47.013 103.92h-.045v.374h.045zm-.046 0h-.045v.374h.045z" fill="#D7E6FD"/>
                <path d="M46.919 103.92h-.046v.374h.046z" fill="#D8E7FD"/>
                <path d="M46.873 103.92h-.045v.374h.045z" fill="#D9E7FD"/>
            </g>
            <mask id="f" style="mask-type:luminance" maskUnits="userSpaceOnUse" x="50" y="103" width="3" height="2">
                <path d="M50.2 103.922h2.38a.29.29 0 0 1 .283.212l.032.162h-2.721l-.059-.279a.08.08 0 0 1 .085-.095"
                      fill="#fff"/>
            </mask>
            <g mask="url(#f)">
                <path d="M52.895 103.92h-.045v.374h.045zm-.049 0h-.045v.374h.045z" fill="#A8CCFC"/>
                <path d="M52.8 103.92h-.045v.374h.046z" fill="#A9CDFC"/>
                <path d="M52.755 103.92h-.045v.374h.045z" fill="#AACDFC"/>
                <path d="M52.707 103.92h-.046v.374h.046z" fill="#ABCEFC"/>
                <path d="M52.661 103.92h-.046v.374h.046z" fill="#ACCEFC"/>
                <path d="M52.616 103.92h-.046v.374h.046z" fill="#ACCEFC"/>
                <path d="M52.57 103.92h-.046v.374h.046zm-.049 0h-.045v.374h.045z" fill="#ADCFFC"/>
                <path d="M52.476 103.92h-.046v.374h.046z" fill="#AED0FC"/>
                <path d="M52.43 103.92h-.045v.374h.045z" fill="#AFD0FC"/>
                <path d="M52.385 103.92h-.046v.374h.046z" fill="#B0D1FC"/>
                <path d="M52.336 103.92h-.046v.374h.046z" fill="#B1D1FC"/>
                <path d="M52.29 103.92h-.045v.374h.045zm-.045 0h-.046v.374h.046z" fill="#B2D2FC"/>
                <path d="M52.2 103.92h-.046v.374h.045z" fill="#B3D2FC"/>
                <path d="M52.15 103.92h-.045v.374h.046zm-.045 0h-.045v.374h.045z" fill="#B4D3FC"/>
                <path d="M52.06 103.92h-.046v.374h.045z" fill="#B5D4FC"/>
                <path d="M52.014 103.92h-.046v.374h.046z" fill="#B6D4FC"/>
                <path d="M51.965 103.92h-.045v.374h.045z" fill="#B7D5FC"/>
                <path d="M51.92 103.92h-.046v.374h.046z" fill="#B8D5FC"/>
                <path d="M51.874 103.92h-.045v.374h.045zm-.049 0h-.045v.374h.045z" fill="#B9D6FC"/>
                <path d="M51.78 103.92h-.046v.374h.046z" fill="#BAD7FD"/>
                <path d="M51.734 103.92h-.045v.374h.045z" fill="#BBD7FD"/>
                <path d="M51.689 103.92h-.046v.374h.046z" fill="#BCD7FD"/>
                <path d="M51.64 103.92h-.046v.374h.046z" fill="#BDD8FD"/>
                <path d="M51.595 103.92h-.046v.374h.046z" fill="#BED8FD"/>
                <path d="M51.549 103.92h-.046v.374h.046z" fill="#BFD9FD"/>
                <path d="M51.504 103.92h-.046v.374h.046z" fill="#C0D9FD"/>
                <path d="M51.455 103.92h-.046v.374h.046z" fill="#C1DAFD"/>
                <path d="M51.41 103.92h-.046v.374h.045z" fill="#C1DAFD"/>
                <path d="M51.364 103.92h-.046v.374h.046z" fill="#C2DBFD"/>
                <path d="M51.318 103.92h-.045v.374h.045z" fill="#C3DBFD"/>
                <path d="M51.27 103.92h-.046v.374h.045z" fill="#C4DCFD"/>
                <path d="M51.224 103.92h-.046v.374h.046z" fill="#C5DCFD"/>
                <path d="M51.178 103.92h-.045v.374h.045zm-.048 0h-.046v.374h.045z" fill="#C6DDFD"/>
                <path d="M51.084 103.92h-.045v.374h.045z" fill="#C7DEFD"/>
                <path d="M51.038 103.92h-.045v.374h.045z" fill="#C8DEFD"/>
                <path d="M50.993 103.92h-.046v.374h.046z" fill="#C9DEFD"/>
                <path d="M50.944 103.92H50.9v.374h.045z" fill="#CADFFD"/>
                <path d="M50.899 103.92h-.046v.374h.046z" fill="#CBDFFD"/>
                <path d="M50.853 103.92h-.045v.374h.045zm-.045 0h-.046v.374h.046z" fill="#CCE0FD"/>
                <path d="M50.759 103.92h-.046v.374h.046z" fill="#CDE1FD"/>
                <path d="M50.713 103.92h-.045v.374h.045z" fill="#CEE1FD"/>
                <path d="M50.668 103.92h-.046v.374h.046z" fill="#CFE2FD"/>
                <path d="M50.622 103.92h-.045v.374h.045z" fill="#D0E2FD"/>
                <path d="M50.574 103.92h-.046v.374h.046z" fill="#D1E3FD"/>
                <path d="M50.528 103.92h-.046v.374h.046z" fill="#D2E3FD"/>
                <path d="M50.483 103.92h-.046v.374h.046z" fill="#D3E4FD"/>
                <path d="M50.434 103.92h-.046v.374h.046z" fill="#D4E4FD"/>
                <path d="M50.388 103.92h-.045v.374h.045z" fill="#D5E5FD"/>
                <path d="M50.343 103.92h-.046v.374h.046z" fill="#D6E5FD"/>
                <path d="M50.297 103.92h-.045v.374h.045zm-.049 0h-.045v.374h.045z" fill="#D7E6FD"/>
                <path d="M50.203 103.92h-.046v.374h.046z" fill="#D8E7FD"/>
                <path d="M50.157 103.92h-.045v.374h.045z" fill="#D9E7FD"/>
            </g>
            <mask id="g" style="mask-type:luminance" maskUnits="userSpaceOnUse" x="53" y="103" width="4" height="2">
                <path d="M53.487 103.922h2.377a.28.28 0 0 1 .28.212l.029.162H53.45l-.052-.279a.08.08 0 0 1 .02-.069.1.1 0 0 1 .031-.021.1.1 0 0 1 .037-.005"
                      fill="#fff"/>
            </mask>
            <g mask="url(#g)">
                <path d="M56.173 103.92h-.046v.374h.045zm-.049 0h-.046v.374h.046z" fill="#A8CCFC"/>
                <path d="M56.078 103.92h-.045v.374h.045z" fill="#A9CDFC"/>
                <path d="M56.033 103.92h-.046v.374h.046z" fill="#AACDFC"/>
                <path d="M55.987 103.92h-.045v.374h.045z" fill="#ABCEFC"/>
                <path d="M55.939 103.92h-.046v.374h.046zm-.046 0h-.046v.374h.046z" fill="#ACCEFC"/>
                <path d="M55.848 103.92h-.046v.374h.045zm-.046 0h-.046v.374h.046z" fill="#ADCFFC"/>
                <path d="M55.753 103.92h-.045v.374h.045z" fill="#AED0FC"/>
                <path d="M55.708 103.92h-.046v.374h.046z" fill="#AFD0FC"/>
                <path d="M55.662 103.92h-.045v.374h.045z" fill="#B0D1FC"/>
                <path d="M55.617 103.92h-.046v.374h.046z" fill="#B1D1FC"/>
                <path d="M55.568 103.92h-.046v.374h.046zm-.046 0h-.045v.374h.045z" fill="#B2D2FC"/>
                <path d="M55.477 103.92h-.046v.374h.046z" fill="#B3D2FC"/>
                <path d="M55.431 103.92h-.045v.374h.045z" fill="#B4D3FC"/>
                <path d="M55.386 103.92h-.046v.374h.046z" fill="#B4D3FC"/>
                <path d="M55.337 103.92h-.046v.374h.046z" fill="#B5D4FC"/>
                <path d="M55.291 103.92h-.045v.374h.045z" fill="#B6D4FC"/>
                <path d="M55.246 103.92H55.2v.374h.046z" fill="#B7D5FC"/>
                <path d="M55.2 103.92h-.045v.374h.045z" fill="#B8D5FC"/>
                <path d="M55.152 103.92h-.046v.374h.045zm-.046 0h-.046v.374h.046z" fill="#B9D6FC"/>
                <path d="M55.06 103.92h-.045v.374h.046z" fill="#BAD7FD"/>
                <path d="M55.015 103.92h-.046v.374h.046z" fill="#BBD7FD"/>
                <path d="M54.966 103.92h-.045v.374h.045z" fill="#BCD7FD"/>
                <path d="M54.92 103.92h-.045v.374h.046z" fill="#BDD8FD"/>
                <path d="M54.875 103.92h-.045v.374h.045z" fill="#BED8FD"/>
                <path d="M54.83 103.92h-.046v.374h.046z" fill="#BFD9FD"/>
                <path d="M54.784 103.92h-.045v.374h.045z" fill="#C0D9FD"/>
                <path d="M54.736 103.92h-.046v.374h.046zm-.046 0h-.046v.374h.046z" fill="#C1DAFD"/>
                <path d="M54.644 103.92H54.6v.374h.045z" fill="#C2DBFD"/>
                <path d="M54.599 103.92h-.046v.374h.046z" fill="#C3DBFD"/>
                <path d="M54.55 103.92h-.045v.374h.045z" fill="#C4DCFD"/>
                <path d="M54.505 103.92h-.046v.374h.045z" fill="#C5DCFD"/>
                <path d="M54.46 103.92h-.046v.374h.045zm-.047 0h-.045v.374h.045z" fill="#C6DDFD"/>
                <path d="M54.365 103.92h-.046v.374h.046z" fill="#C7DEFD"/>
                <path d="M54.32 103.92h-.046v.374h.045z" fill="#C8DEFD"/>
                <path d="M54.274 103.92h-.046v.374h.045z" fill="#C9DEFD"/>
                <path d="M54.228 103.92h-.045v.374h.045z" fill="#CADFFD"/>
                <path d="M54.183 103.92h-.046v.374h.046z" fill="#CBDFFD"/>
                <path d="M54.134 103.92h-.046v.374h.046zm-.046 0h-.045v.374h.045z" fill="#CCE0FD"/>
                <path d="M54.043 103.92h-.046v.374h.046z" fill="#CDE1FD"/>
                <path d="M53.997 103.92h-.045v.374h.045z" fill="#CEE1FD"/>
                <path d="M53.949 103.92h-.046v.374h.046z" fill="#CFE2FD"/>
                <path d="M53.903 103.92h-.046v.374h.046z" fill="#D0E2FD"/>
                <path d="M53.858 103.92h-.046v.374h.046z" fill="#D1E3FD"/>
                <path d="M53.812 103.92h-.046v.374h.046z" fill="#D2E3FD"/>
                <path d="M53.763 103.92h-.045v.374h.045z" fill="#D3E4FD"/>
                <path d="M53.718 103.92h-.046v.374h.046z" fill="#D4E4FD"/>
                <path d="M53.672 103.92h-.045v.374h.045z" fill="#D5E5FD"/>
                <path d="M53.627 103.92h-.046v.374h.046z" fill="#D6E5FD"/>
                <path d="M53.581 103.92h-.045v.374h.045zm-.049 0h-.045v.374h.045z" fill="#D7E6FD"/>
                <path d="M53.487 103.92h-.046v.374h.046z" fill="#D8E7FD"/>
                <path d="M53.441 103.92h-.045v.374h.045z" fill="#D9E7FD"/>
            </g>
            <mask id="h" style="mask-type:luminance" maskUnits="userSpaceOnUse" x="57" y="103" width="2" height="2">
                <path d="M57.356 103.922h1.242a.276.276 0 0 1 .276.212l.027.162h-1.59l-.046-.28a.1.1 0 0 1 .004-.037.1.1 0 0 1 .05-.052.1.1 0 0 1 .037-.005"
                      fill="#fff"/>
            </mask>
            <g mask="url(#h)">
                <path d="M58.898 103.918h-.026v.374h.026zm-.026 0h-.026v.374h.026z" fill="#A8CCFC"/>
                <path d="M58.842 103.918h-.026v.374h.026z" fill="#A9CDFC"/>
                <path d="M58.816 103.918h-.026v.374h.026z" fill="#AACDFC"/>
                <path d="M58.79 103.918h-.026v.374h.026z" fill="#ABCEFC"/>
                <path d="M58.761 103.918h-.026v.374h.026zm-.026 0h-.026v.374h.026z" fill="#ACCEFC"/>
                <path d="M58.706 103.918h-.026v.374h.026zm-.026 0h-.026v.374h.026z" fill="#ADCFFC"/>
                <path d="M58.654 103.918h-.026v.374h.026z" fill="#AED0FC"/>
                <path d="M58.625 103.918h-.026v.374h.026z" fill="#AFD0FC"/>
                <path d="M58.599 103.918h-.026v.374h.026z" fill="#B0D1FC"/>
                <path d="M58.57 103.918h-.027v.374h.026z" fill="#B1D1FC"/>
                <path d="M58.543 103.918h-.026v.374h.026z" fill="#B2D2FC"/>
                <path d="M58.517 103.918h-.026v.374h.026z" fill="#B2D2FC"/>
                <path d="M58.488 103.918h-.026v.374h.026z" fill="#B3D2FC"/>
                <path d="M58.462 103.918h-.026v.374h.026zm-.026 0h-.026v.374h.026z" fill="#B4D3FC"/>
                <path d="M58.407 103.918h-.026v.374h.026z" fill="#B5D4FC"/>
                <path d="M58.38 103.918h-.025v.374h.026z" fill="#B6D4FC"/>
                <path d="M58.352 103.918h-.027v.374h.026z" fill="#B7D5FC"/>
                <path d="M58.325 103.918H58.3v.374h.026z" fill="#B8D5FC"/>
                <path d="M58.3 103.918h-.027v.374h.026zm-.03 0h-.026v.374h.026z" fill="#B9D6FC"/>
                <path d="M58.244 103.918h-.026v.374h.026z" fill="#BAD7FD"/>
                <path d="M58.215 103.918h-.026v.374h.026z" fill="#BBD7FD"/>
                <path d="M58.189 103.918h-.026v.374h.026z" fill="#BCD7FD"/>
                <path d="M58.163 103.918h-.026v.374h.026z" fill="#BDD8FD"/>
                <path d="M58.133 103.918h-.026v.374h.026z" fill="#BED8FD"/>
                <path d="M58.108 103.918h-.026v.374h.026z" fill="#BFD9FD"/>
                <path d="M58.078 103.918h-.026v.374h.026z" fill="#C0D9FD"/>
                <path d="M58.052 103.918h-.026v.374h.026z" fill="#C1DAFD"/>
                <path d="M58.026 103.918H58v.374h.026z" fill="#C1DAFD"/>
                <path d="M57.997 103.918h-.026v.374h.026z" fill="#C2DBFD"/>
                <path d="M57.971 103.918h-.026v.374h.026z" fill="#C3DBFD"/>
                <path d="M57.942 103.918h-.026v.374h.026z" fill="#C4DCFD"/>
                <path d="M57.916 103.918h-.026v.374h.026z" fill="#C5DCFD"/>
                <path d="M57.89 103.918h-.026v.374h.026zm-.03 0h-.026v.374h.026z" fill="#C6DDFD"/>
                <path d="M57.834 103.918h-.026v.374h.026z" fill="#C7DEFD"/>
                <path d="M57.805 103.918h-.026v.374h.026z" fill="#C8DEFD"/>
                <path d="M57.78 103.918h-.027v.374h.026z" fill="#C9DEFD"/>
                <path d="M57.753 103.918h-.026v.374h.026z" fill="#CADFFD"/>
                <path d="M57.724 103.918h-.026v.374h.026z" fill="#CBDFFD"/>
                <path d="M57.698 103.918h-.026v.374h.026zm-.029 0h-.026v.374h.026z" fill="#CCE0FD"/>
                <path d="M57.643 103.918h-.026v.374h.026z" fill="#CDE1FD"/>
                <path d="M57.617 103.918h-.026v.374h.026z" fill="#CEE1FD"/>
                <path d="M57.587 103.918h-.026v.374h.026z" fill="#CFE2FD"/>
                <path d="M57.561 103.918h-.026v.374h.026z" fill="#D0E2FD"/>
                <path d="M57.535 103.918h-.026v.374h.026z" fill="#D1E3FD"/>
                <path d="M57.506 103.918h-.026v.374h.026z" fill="#D2E3FD"/>
                <path d="M57.48 103.918h-.026v.374h.026z" fill="#D3E4FD"/>
                <path d="M57.45 103.918h-.025v.374h.026z" fill="#D4E4FD"/>
                <path d="M57.425 103.918h-.026v.374h.026z" fill="#D5E5FD"/>
                <path d="M57.399 103.918h-.026v.374h.026z" fill="#D6E5FD"/>
                <path d="M57.37 103.918h-.026v.374h.026zm-.027 0h-.026v.374h.026z" fill="#D7E6FD"/>
                <path d="M57.314 103.918h-.026v.374h.026z" fill="#D8E7FD"/>
                <path d="M57.288 103.918h-.026v.374h.026z" fill="#D9E7FD"/>
            </g>
            <mask id="i" style="mask-type:luminance" maskUnits="userSpaceOnUse" x="59" y="103" width="2" height="2">
                <path d="M59.291 103.922h1.242a.27.27 0 0 1 .273.211l.023.163h-1.596l-.043-.28a.1.1 0 0 1 .004-.04.1.1 0 0 1 .022-.033.08.08 0 0 1 .075-.021"
                      fill="#fff"/>
            </mask>
            <g mask="url(#i)">
                <path d="M60.832 103.918h-.026v.374h.026zm-.029 0h-.026v.374h.026z" fill="#A8CCFC"/>
                <path d="M60.777 103.918h-.026v.374h.026z" fill="#A9CDFC"/>
                <path d="M60.748 103.918h-.026v.374h.026z" fill="#AACDFC"/>
                <path d="M60.722 103.918h-.026v.374h.026z" fill="#ABCEFC"/>
                <path d="M60.696 103.918h-.026v.374h.026zm-.03 0h-.026v.374h.026z" fill="#ACCEFC"/>
                <path d="M60.64 103.918h-.026v.374h.027zm-.026 0h-.026v.374h.026z" fill="#ADCFFC"/>
                <path d="M60.585 103.918h-.026v.374h.026z" fill="#AED0FC"/>
                <path d="M60.56 103.918h-.027v.374h.026z" fill="#AFD0FC"/>
                <path d="M60.53 103.918h-.026v.374h.026z" fill="#B0D1FC"/>
                <path d="M60.504 103.918h-.026v.374h.026z" fill="#B1D1FC"/>
                <path d="M60.478 103.918h-.026v.374h.026zm-.029 0h-.026v.374h.026z" fill="#B2D2FC"/>
                <path d="M60.423 103.918h-.026v.374h.026z" fill="#B3D2FC"/>
                <path d="M60.397 103.918h-.026v.374h.026zm-.03 0h-.026v.374h.026z" fill="#B4D3FC"/>
                <path d="M60.341 103.918h-.026v.374h.026z" fill="#B5D4FC"/>
                <path d="M60.312 103.918h-.026v.374h.026z" fill="#B6D4FC"/>
                <path d="M60.286 103.918h-.026v.374h.026z" fill="#B7D5FC"/>
                <path d="M60.26 103.918h-.026v.374h.026z" fill="#B8D5FC"/>
                <path d="M60.23 103.918h-.025v.374h.026zm-.025 0h-.026v.374h.026z" fill="#B9D6FC"/>
                <path d="M60.179 103.918h-.026v.374h.026z" fill="#BAD7FD"/>
                <path d="M60.15 103.918h-.026v.374h.026z" fill="#BBD7FD"/>
                <path d="M60.123 103.918h-.026v.374h.026z" fill="#BCD7FD"/>
                <path d="M60.094 103.918h-.026v.374h.026z" fill="#BDD8FD"/>
                <path d="M60.068 103.918h-.026v.374h.026z" fill="#BED8FD"/>
                <path d="M60.042 103.918h-.026v.374h.026z" fill="#BFD9FD"/>
                <path d="M60.013 103.918h-.026v.374h.026z" fill="#C0D9FD"/>
                <path d="M59.987 103.918h-.026v.374h.026z" fill="#C1DAFD"/>
                <path d="M59.96 103.918h-.025v.374h.026z" fill="#C1DAFD"/>
                <path d="M59.932 103.918h-.026v.374h.026z" fill="#C2DBFD"/>
                <path d="M59.906 103.918h-.026v.374h.026z" fill="#C3DBFD"/>
                <path d="M59.876 103.918h-.026v.374h.026z" fill="#C4DCFD"/>
                <path d="M59.85 103.918h-.026v.374h.026z" fill="#C5DCFD"/>
                <path d="M59.824 103.918h-.026v.374h.026zm-.029 0h-.026v.374h.026z" fill="#C6DDFD"/>
                <path d="M59.77 103.918h-.027v.374h.026z" fill="#C7DEFD"/>
                <path d="M59.74 103.918h-.026v.374h.026z" fill="#C8DEFD"/>
                <path d="M59.714 103.918h-.026v.374h.026z" fill="#C9DEFD"/>
                <path d="M59.688 103.918h-.026v.374h.026z" fill="#CADFFD"/>
                <path d="M59.659 103.918h-.026v.374h.026z" fill="#CBDFFD"/>
                <path d="M59.633 103.918h-.027v.374h.026z" fill="#CCE0FD"/>
                <path d="M59.607 103.918h-.026v.374h.026z" fill="#CCE0FD"/>
                <path d="M59.577 103.918h-.026v.374h.026z" fill="#CDE1FD"/>
                <path d="M59.551 103.918h-.026v.374h.026z" fill="#CEE1FD"/>
                <path d="M59.522 103.918h-.026v.374h.026z" fill="#CFE2FD"/>
                <path d="M59.496 103.918h-.026v.374h.026z" fill="#D0E2FD"/>
                <path d="M59.47 103.918h-.026v.374h.026z" fill="#D1E3FD"/>
                <path d="M59.44 103.918h-.025v.374h.026z" fill="#D2E3FD"/>
                <path d="M59.415 103.918h-.026v.374h.026z" fill="#D3E4FD"/>
                <path d="M59.389 103.918h-.027v.374h.027z" fill="#D4E4FD"/>
                <path d="M59.36 103.918h-.027v.374h.026z" fill="#D5E5FD"/>
                <path d="M59.333 103.918h-.026v.374h.026z" fill="#D6E5FD"/>
                <path d="M59.304 103.918h-.026v.374h.026zm-.026 0h-.026v.374h.026z" fill="#D7E6FD"/>
                <path d="M59.252 103.918h-.026v.374h.026z" fill="#D8E7FD"/>
                <path d="M59.223 103.918h-.026v.374h.026z" fill="#D9E7FD"/>
                <path d="M59.197 103.918h-.007v.374h.007z" fill="#D9E7FD"/>
            </g>
            <mask id="j" style="mask-type:luminance" maskUnits="userSpaceOnUse" x="61" y="103" width="2" height="2">
                <path d="M61.115 103.922h1.245a.27.27 0 0 1 .27.211l.02.163h-1.59l-.04-.28a.08.08 0 0 1 .025-.068.1.1 0 0 1 .033-.021.1.1 0 0 1 .037-.005"
                      fill="#fff"/>
            </mask>
            <g mask="url(#j)">
                <path d="M62.65 103.918h-.026v.374h.026zm-.03 0h-.026v.374h.026z" fill="#A8CCFC"/>
                <path d="M62.594 103.918h-.026v.374h.026z" fill="#A9CDFC"/>
                <path d="M62.569 103.918h-.027v.374h.026z" fill="#AACDFC"/>
                <path d="M62.54 103.918h-.027v.374h.026z" fill="#ABCEFC"/>
                <path d="M62.513 103.918h-.026v.374h.026z" fill="#ACCEFC"/>
                <path d="M62.487 103.918h-.026v.374h.026z" fill="#ACCEFC"/>
                <path d="M62.458 103.918h-.026v.374h.026z" fill="#ADCFFC"/>
                <path d="M62.432 103.918h-.026v.374h.026z" fill="#ADCFFC"/>
                <path d="M62.406 103.918h-.026v.374h.026z" fill="#AED0FC"/>
                <path d="M62.377 103.918h-.026v.374h.026z" fill="#AFD0FC"/>
                <path d="M62.35 103.918h-.026v.374h.026z" fill="#B0D1FC"/>
                <path d="M62.325 103.918h-.026v.374h.026z" fill="#B1D1FC"/>
                <path d="M62.295 103.918h-.026v.374h.026z" fill="#B2D2FC"/>
                <path d="M62.27 103.918h-.027v.374h.026z" fill="#B2D2FC"/>
                <path d="M62.243 103.918h-.026v.374h.026z" fill="#B3D2FC"/>
                <path d="M62.214 103.918h-.026v.374h.026z" fill="#B4D3FC"/>
                <path d="M62.188 103.918h-.026v.374h.026z" fill="#B4D3FC"/>
                <path d="M62.159 103.918h-.026v.374h.026z" fill="#B5D4FC"/>
                <path d="M62.133 103.918h-.026v.374h.026z" fill="#B6D4FC"/>
                <path d="M62.107 103.918h-.026v.374h.026z" fill="#B7D5FC"/>
                <path d="M62.078 103.918h-.027v.374h.026z" fill="#B8D5FC"/>
                <path d="M62.051 103.918h-.026v.374h.026z" fill="#B9D6FC"/>
                <path d="M62.025 103.918H62v.374h.026z" fill="#B9D6FC"/>
                <path d="M61.996 103.918h-.026v.374h.026z" fill="#BAD7FD"/>
                <path d="M61.97 103.918h-.026v.374h.026z" fill="#BBD7FD"/>
                <path d="M61.944 103.918h-.026v.374h.026z" fill="#BCD7FD"/>
                <path d="M61.915 103.918h-.026v.374h.026z" fill="#BDD8FD"/>
                <path d="M61.889 103.918h-.026v.374h.026z" fill="#BED8FD"/>
                <path d="M61.863 103.918h-.026v.374h.026z" fill="#BFD9FD"/>
                <path d="M61.834 103.918h-.026v.374h.026z" fill="#C0D9FD"/>
                <path d="M61.808 103.918h-.026v.374h.026zm-.03 0h-.026v.374h.026z" fill="#C1DAFD"/>
                <path d="M61.752 103.918h-.026v.374h.026z" fill="#C2DBFD"/>
                <path d="M61.726 103.918H61.7v.374h.026z" fill="#C3DBFD"/>
                <path d="M61.697 103.918h-.026v.374h.026z" fill="#C4DCFD"/>
                <path d="M61.671 103.918h-.026v.374h.026z" fill="#C5DCFD"/>
                <path d="M61.645 103.918h-.026v.374h.026zm-.029 0h-.026v.374h.026z" fill="#C6DDFD"/>
                <path d="M61.59 103.918h-.026v.374h.026z" fill="#C7DEFD"/>
                <path d="M61.564 103.918h-.026v.374h.026z" fill="#C8DEFD"/>
                <path d="M61.534 103.918h-.026v.374h.026z" fill="#C9DEFD"/>
                <path d="M61.508 103.918h-.026v.374h.026z" fill="#CADFFD"/>
                <path d="M61.482 103.918h-.026v.374h.026z" fill="#CBDFFD"/>
                <path d="M61.453 103.918h-.026v.374h.026zm-.026 0h-.026v.374h.026z" fill="#CCE0FD"/>
                <path d="M61.398 103.918h-.026v.374h.026z" fill="#CDE1FD"/>
                <path d="M61.372 103.918h-.026v.374h.026z" fill="#CEE1FD"/>
                <path d="M61.346 103.918h-.026v.374h.026z" fill="#CFE2FD"/>
                <path d="M61.317 103.918h-.026v.374h.026z" fill="#D0E2FD"/>
                <path d="M61.29 103.918h-.025v.374h.026z" fill="#D1E3FD"/>
                <path d="M61.265 103.918h-.026v.374h.026z" fill="#D2E3FD"/>
                <path d="M61.235 103.918h-.026v.374h.026z" fill="#D3E4FD"/>
                <path d="M61.21 103.918h-.027v.374h.026z" fill="#D4E4FD"/>
                <path d="M61.183 103.918h-.026v.374h.026z" fill="#D5E5FD"/>
                <path d="M61.154 103.918h-.026v.374h.026z" fill="#D6E5FD"/>
                <path d="M61.128 103.918h-.026v.374h.026zm-.026 0h-.026v.374h.026z" fill="#D7E6FD"/>
                <path d="M61.073 103.918h-.026v.374h.026z" fill="#D8E7FD"/>
                <path d="M61.047 103.918h-.026v.374h.026z" fill="#D9E7FD"/>
                <path d="M61.02 103.918h-.006v.374h.007z" fill="#D9E7FD"/>
            </g>
            <path d="M71.312 82.084H34.895a.723.723 0 0 0-.774.767l3.28 21.269h30.754l3.928-21.136a.777.777 0 0 0-.77-.9"
                  fill="#3851A2"/>
            <path d="M37.554 104.952a.44.44 0 0 0 .403.273h29.931a.132.132 0 0 0 .146-.136l.12-.976H37.393z"
                  fill="#E4E4E4"/>
            <path d="M37.447 104.988a.56.56 0 0 0 .517.354h29.93a.27.27 0 0 0 .206-.084.23.23 0 0 0 .058-.166l.14-1.096h-31.05zm30.565-.742-.108.839-.026.02h-29.92a.33.33 0 0 1-.287-.176l-.136-.696zm1.86-22.314h-33.55v.257h33.55zm29.979-44.518h-.218L99 33.938c2.647-7.885 2.585-16.388-2.162-14.42a3.4 3.4 0 0 0-.416.217L94.349 8.28l-.12-.212h-.244l2.153 11.862a5 5 0 0 0-1.135 1.3 7 7 0 0 0-.26.433c-1.463 2.654-2.123 7.102-2.276 11.078-1.61-3.638-4.1-7.225-6.829-9.01l2.195-14.538-.325.101-2.169 14.239-.341-.192v-.023h-.078a6.6 6.6 0 0 0-1.56-.605 3 3 0 0 0-.326-.068c-1.415-.257-2.832.095-4.175 1.265a.04.04 0 0 0-.02-.016l-.107.127a3.8 3.8 0 0 0-1.336 2.897c0 1.86 1.245 3.94 2.991 5.924l-.1.27q.212.074.48.15c.183.201.371.393.56.588q.144.15.29.293a37 37 0 0 0 1.817 1.68l-.244 1.584h-.081a1.44 1.44 0 0 0-1.437 1.44v1.831a1.44 1.44 0 0 0 1.437 1.44h.071l2.715 4.664h11.173l2.712-4.64h.071a1.444 1.444 0 0 0 1.441-1.44v-1.848a1.444 1.444 0 0 0-1.44-1.44m-16.31 0 .202-1.33q.821.699 1.642 1.33zm14.09 0c.422-.917.806-1.87 1.15-2.839l.514 2.839z"
                  fill="#260D19"/>
            <path d="m83.047 22.651-1.704 11.205-.244 1.606.325.052.209-1.365 1.74-11.43L85.3 10.075a7 7 0 0 0-.357.146z"
                  fill="#260D19"/>
            <path d="M76.658 21.938c-5.72 5.248 8.538 15.243 11.962 16.895h3.525c.904-6.614-8.431-23.353-15.487-16.895"
                  fill="#508A82"/>
            <path d="m76.765 21.81-.215.254c.085.072 8.526 7.267 13.751 16.83l.293-.159c-5.258-9.599-13.745-16.853-13.83-16.924"
                  fill="#260D19"/>
            <path d="M78.212 31.028c1.798.67 7.7 1.3 7.95 1.316l.032-.325c-.058 0-6.11-.65-7.865-1.3zm3.358-4.442.306.123c.843-2.094 1.005-5.335 1.012-5.472l-.326-.016c-.01.032-.172 3.323-.991 5.365"
                  fill="#260D19"/>
            <path d="M92.145 38.832c.36-2.682-.976-7.023-3.122-10.814-.78.708-1.804 6.516 3.122 10.814" fill="#000"/>
            <path d="M94.746 17.431c-5.069 2.107-4.949 19.308-3.684 21.402h2.563c5.498-8.38 7.384-24.003 1.121-21.402"
                  fill="#508A82"/>
            <path d="m91.982 38.797.326.068c.975-4.64 3.658-19.603 3.684-19.756l-.342-.052c0 .146-2.686 15.103-3.668 19.74"
                  fill="#260D19"/>
            <path d="m95.926 30.785-2.737 2.748.235.234 2.737-2.749zm-5.1-5.813-.19.272 3.123 2.17.189-.272z"
                  fill="#260D19"/>
            <path d="M97.76 35.326H81.034a1.44 1.44 0 0 0-1.44 1.44v1.831c0 .796.645 1.44 1.44 1.44H97.76a1.44 1.44 0 0 0 1.44-1.44v-1.83a1.44 1.44 0 0 0-1.44-1.44"
                  fill="#fff"/>
            <path d="M83.811 44.692h11.173l2.737-4.712H81.073z" fill="#fff"/>
            <path d="M92.252 39.74H81.984v.332h10.268zM95 21.239 92.62 8.213l-.326.039 2.433 13.406 2.63 14.483.325-.059z"
                  fill="#260D19"/>
            <path d="M99.022 152.014h2.614v-1.815h40.925v1.815h2.562v-38.336H99.022z" fill="#6581D4"/>
            <path d="M101.474 135.719h41.2v-8.408h-41.2zm.325-8.077h40.544v7.745h-40.538z" fill="#260D19"/>
            <path d="M99.022 117.569h41.412l4.617-3.885H99.022z" fill="#3851A2"/>
            <path d="M147.783 110.984H96.369v2.745h51.414z" fill="#fff"/>
            <path d="M98.2 111.15h49.413v2.413H96.45v.331h51.495v-3.076H98.199z" fill="#260D19"/>
            <path d="M121.581 130.328a1.509 1.509 0 1 0-.005 3.018 1.509 1.509 0 0 0 .005-3.018" fill="#3851A2"/>
            <path d="M122.076 130.465a1.047 1.047 0 0 0-1.03 1.255 1.045 1.045 0 0 0 .825.825 1.052 1.052 0 0 0 .947-1.773 1.05 1.05 0 0 0-.742-.307"
                  fill="#E29A57"/>
            <path d="M122.076 130.299a1.213 1.213 0 0 0-1.193 1.453 1.218 1.218 0 0 0 2.204.439 1.215 1.215 0 0 0-1.011-1.892m0 2.1a.89.89 0 0 1-.817-.546.884.884 0 1 1 .817.546m-20.602-7.518h41.2v-8.408h-41.2zm.325-8.077h40.544v7.746h-40.538z"
                  fill="#260D19"/>
            <path d="M121.581 119.49a1.51 1.51 0 0 0-1.39.93 1.503 1.503 0 0 0 1.097 2.052 1.51 1.51 0 0 0 1.545-.64 1.5 1.5 0 0 0-.187-1.901 1.5 1.5 0 0 0-1.065-.441"
                  fill="#3851A2"/>
            <path d="M122.076 119.627a1.06 1.06 0 0 0-.971.648 1.05 1.05 0 1 0 .971-.648" fill="#E29A57"/>
            <path d="M122.076 119.461a1.213 1.213 0 0 0-1.193 1.453 1.218 1.218 0 0 0 2.204.439 1.22 1.22 0 0 0-.15-1.537 1.22 1.22 0 0 0-.861-.355m0 2.1a.88.88 0 0 1-.817-.546.884.884 0 1 1 .817.546m-20.602 24.986h41.2v-8.408h-41.2zm.325-8.077h40.544v7.742h-40.538z"
                  fill="#260D19"/>
            <path d="M121.581 141.152a1.514 1.514 0 0 0-1.483 1.801 1.51 1.51 0 0 0 1.185 1.188 1.51 1.51 0 0 0 1.549-.641 1.51 1.51 0 0 0-.186-1.905 1.5 1.5 0 0 0-1.065-.443"
                  fill="#3851A2"/>
            <path d="M122.076 141.289a1.06 1.06 0 0 0-.976.648 1.05 1.05 0 0 0 .226 1.149 1.052 1.052 0 0 0 1.8-.743 1.06 1.06 0 0 0-.307-.745 1.04 1.04 0 0 0-.743-.309"
                  fill="#E29A57"/>
            <path d="M122.076 141.127a1.213 1.213 0 0 0-1.193 1.453 1.218 1.218 0 0 0 2.204.439 1.22 1.22 0 0 0-.15-1.537 1.22 1.22 0 0 0-.861-.355m0 2.1a.88.88 0 0 1-.817-.546.882.882 0 0 1 .644-1.205.88.88 0 0 1 1.057.867.88.88 0 0 1-.884.884"
                  fill="#260D19"/>
            <path d="M139.335 48.98h-36.229a2.44 2.44 0 0 0-2.442 2.442V97.02a2.44 2.44 0 0 0 2.442 2.442h36.229a2.44 2.44 0 0 0 2.442-2.442V51.422a2.44 2.44 0 0 0-2.442-2.441"
                  fill="#fff"/>
            <path d="M140.037 45.885h-23.492v.182h23.492a4.355 4.355 0 0 1 4.351 4.35v47.604a4.354 4.354 0 0 1-4.351 4.35h-37.63a4.355 4.355 0 0 1-4.347-4.35V56.075h-.183V98.02a4.553 4.553 0 0 0 4.53 4.533h37.63a4.55 4.55 0 0 0 4.533-4.532V50.417a4.55 4.55 0 0 0-4.533-4.532"
                  fill="#260D19"/>
            <path d="M124.84 89.518h.019l.208.02.023-.27-.221-.02z" fill="#260D19"/>
            <path d="M138.203 75.41c0-.05 0-.101-.019-.15v-.046a12.33 12.33 0 0 0-10.285-10.184l-.943-.188-1.801 12.092-12.145.137v.136c0 .205 0 .39.017.56.24 5.368 4.376 11.127 11.816 11.745.156.016.325.032.702.052h.478q.895 0 1.782-.127A12.444 12.444 0 0 0 138.32 77.73v-.65a13 13 0 0 0-.11-1.535.3.3 0 0 0-.007-.137m-.149 2.311a12.11 12.11 0 0 1-10.285 11.465c-.732.104-1.472.142-2.211.114-.358-.016-.533-.036-.689-.052h-.085c-7.228-.65-11.247-6.25-11.481-11.485v-.412l12.102-.137 1.789-12.054.673.134c.234.035.406.065.585.1a12.06 12.06 0 0 1 9.469 9.863v.045c0 .046 0 .091.019.146.02.056.016.098.023.15q.1.748.107 1.502c-.003.208-.006.42-.016.621"
                  fill="#260D19"/>
            <path d="M124.84 89.518h.019l.208.02.023-.27-.221-.02z" fill="#260D19"/>
            <path d="M113.534 61.07a12.26 12.26 0 0 0-5.895 10.596v.156l12.928-.136-6.432-10.913z" fill="#C93D2F"/>
            <path d="m129.067 62.88-.81-.16-1.788 12.08-12.125.14c0 .186 0 .37.019.553.247 5.528 4.064 12.681 14.632 11.55 5.723-.609 10.148-5.72 10.405-11.59v-.63a12.19 12.19 0 0 0-10.333-11.943"
                  fill="#508A82"/>
            <path d="M126.088 59.99a12.1 12.1 0 0 0-3.502 0c-1.6.231-3.136.785-4.516 1.626l6.916 11.611 1.909-13.07zm-.933 20.885a15.6 15.6 0 0 1-.634 5.046c-1.057 3.434-3.206 5.444-6.389 5.974l.045.266c3.252-.54 5.528-2.67 6.601-6.162a16 16 0 0 0 .65-5.143z"
                  fill="#260D19"/>
            <path d="m119.032 90.923-.218-.16-.949 1.308 1.372.855.143-.23-1.128-.7zm-.234-32.415c-.097-.826.218-1.658.94-2.478l-.202-.178c-.777.878-1.115 1.785-1.005 2.689.179 1.505 1.522 2.455 1.577 2.494l.157-.221s-1.301-.92-1.467-2.306"
                  fill="#260D19"/>
            <path d="m118.236 55.948.035.266 1.314-.182.088 1.324.27-.017-.108-1.612zm-10.584 20.18.263-.045c-.65-3.87 2.211-5.024 2.335-5.073l-.098-.25c-.032.013-3.18 1.278-2.5 5.368"
                  fill="#260D19"/>
            <path d="m107.782 76-1.024-.842-.173.208 1.249 1.028.933-1.324-.218-.156zm22.939-20.871h-7.026v.25h7.026zm-2.315.661h-4.711v.25h4.711zm1.457.66h-6.168v.25h6.168zm-7.667-1.61a1.07 1.07 0 0 0-.985.658 1.066 1.066 0 1 0 2.051.408 1.06 1.06 0 0 0-.657-.986 1.1 1.1 0 0 0-.409-.08m5.57 39.103h-7.027v.25h7.027zm-2.315.657h-4.712v.25h4.712zm1.456.66h-6.168v.25h6.168z"
                  fill="#260D19"/>
            <path d="M119.24 93.654a1.068 1.068 0 0 0-.753 1.822 1.07 1.07 0 0 0 1.642-.165 1.08 1.08 0 0 0 .097-1.001 1.07 1.07 0 0 0-.986-.656"
                  fill="#fff"/>
            <path d="M108.985 78.904h-7.027v.25h7.027zm0-.66h-4.712v.25h4.712zm.003-.66h-6.168v.25h6.168z"
                  fill="#260D19"/>
            <path d="M110.705 77.26a1.07 1.07 0 0 0-.985.658 1.066 1.066 0 1 0 .985-.658" fill="#C93D2F"/>
        </g>
    </g>
    <defs>
        <clipPath id="a">
            <path fill="#fff" d="M0 0h160v160H0z"/>
        </clipPath>
        <clipPath id="b">
            <path fill="#fff" d="M-10 8h184v144.415H-10z"/>
        </clipPath>
    </defs>
</svg>