<svg width="160" height="160" viewBox="0 0 160 160" fill="none" xmlns="http://www.w3.org/2000/svg">
<path d="M106.724 39.2391C91.3824 37.1493 76.0483 35.6191 60.2693 36.0835C43.0021 36.5955 23.9322 38.0007 14.7042 51.3432C8.72085 60.0001 6.4119 69.4549 5.65248 79.1954C4.5402 93.5025 4.15667 109.518 10.3624 123.176C18.8618 141.878 39.6883 146.313 62.7853 148.695C82.9521 150.773 104.876 151.082 123.662 144.194C142.34 137.341 151.814 123.165 153.432 107.792C155.089 92.0438 156.984 75.0277 150.18 59.7858C143.337 44.4725 124.981 41.7337 106.717 39.245L106.724 39.2391Z" fill="#FFF0E6"/>
<rect x="30" y="10" width="100" height="120" rx="8" fill="white"/>
<path d="M88.5 11H38C33.5817 11 30 14.5817 30 19V123C30 127.418 33.5817 131 38 131H122C126.418 131 130 127.418 130 123V19C130 14.5817 126.418 11 122 11H103.5" stroke="#0A0909" stroke-width="2" stroke-linecap="round"/>
<path d="M94 11H98" stroke="#0A0909" stroke-width="2" stroke-linecap="round"/>
<path d="M60.2627 68H100.526" stroke="#0A0909" stroke-width="2" stroke-linecap="round"/>
<path d="M65.7891 73.5264H94.9996" stroke="#0A0909" stroke-width="2" stroke-linecap="round"/>
<circle cx="92.2105" cy="85.3682" r="4.23684" fill="white" stroke="#CDD0DB"/>
<circle cx="67.3687" cy="85.3682" r="4.23684" fill="white" stroke="#CDD0DB"/>
<circle cx="79.9995" cy="85.3682" r="4.23684" fill="white" stroke="#CDD0DB"/>
<circle cx="54.7368" cy="85.3682" r="4.73684" fill="#F58657"/>
<circle cx="54.7371" cy="85.368" r="2.03008" fill="white"/>
<circle cx="105.263" cy="85.3682" r="4.23684" fill="white" stroke="#CDD0DB"/>
<path d="M60.2627 31.7676H100.526" stroke="#0A0909" stroke-width="2" stroke-linecap="round"/>
<path d="M65.7891 37.2939H94.9996" stroke="#0A0909" stroke-width="2" stroke-linecap="round"/>
<circle cx="54.7368" cy="49.1358" r="4.23684" fill="white" stroke="#CDD0DB"/>
<circle cx="67.3687" cy="49.1358" r="4.23684" fill="white" stroke="#CDD0DB"/>
<circle cx="79.9995" cy="49.1358" r="4.23684" fill="white" stroke="#CDD0DB"/>
<circle cx="92.6314" cy="49.1358" r="4.73684" fill="#F58657"/>
<circle cx="92.6316" cy="49.136" r="2.03008" fill="white"/>
<circle cx="105.263" cy="49.1358" r="4.23684" fill="white" stroke="#CDD0DB"/>
<rect x="59" y="105" width="42" height="10" rx="5" fill="#0A0909"/>
<path d="M69 110H81" stroke="white" stroke-width="2" stroke-linecap="round"/>
<path d="M85 110H91" stroke="white" stroke-width="2" stroke-linecap="round"/>
</svg>
